<?xml version="1.0" encoding="utf-8"?>
<!-- Generator: Adobe Illustrator 22.1.0, SVG Export Plug-In . SVG Version: 6.00 Build 0)  -->
<svg version="1.1" xmlns="http://www.w3.org/2000/svg" xmlns:xlink="http://www.w3.org/1999/xlink" x="0px" y="0px"
	 viewBox="0 0 1440 240.6" style="enable-background:new 0 0 1440 240.6;" xml:space="preserve">
<style type="text/css">
	.st0{fill:#373469;}
	.st1{fill:#282660;}
</style>
<g id="Layer_3">
	<path class="st0" d="M0,103.3v103.1c0,0,122.6,22.3,211.5-21.1s161.8-40.6,247.9,5.4s199.6,91.5,291.4-38.2s230.3-95.1,283.5-42.3
		c53.2,52.7,218.7,103.9,317.2,20c0,0,77.6-65,88.5-61.5V33.1L829.9,18.6L0,103.3z"/>
</g>
<g id="Layer_2">
	<path class="st1" d="M0,125.5c0,0,85.3,57.4,212.2-19.2s261.1-2.8,299.3,29.1s124.6,106.6,235.4-26s254.4-84.6,325.2-35.2
		s160.3,34.8,217.1,1S1435,28.3,1440,36.1V0H0V125.5z"/>
</g>
</svg>
