<?xml version="1.0" encoding="UTF-8"?>
<svg width="1440px" height="470px" viewBox="0 0 1440 470" version="1.1" xmlns="http://www.w3.org/2000/svg" xmlns:xlink="http://www.w3.org/1999/xlink">
    <!-- Generator: Sketch 50.2 (55047) - http://www.bohemiancoding.com/sketch -->
    <title>Footer_Curve1</title>
    <desc>Created with Sketch.</desc>
    <defs></defs>
    <g id="Page-1" stroke="none" stroke-width="1" fill="none" fill-rule="evenodd">
        <g id="Home-Desktop-HD" transform="translate(0.000000, -4592.000000)" fill="#282561">
            <path d="M-85.7388077,4226 C-85.7388077,4226 -85.7778875,5240.00244 -85.7778875,5240 C-89.1289823,5227.52721 -53.5541314,5192.14881 -46.9301015,5183.68395 C36.6750724,5076.84963 122.457725,4944.45238 251.044996,4888.31202 C400.863601,4822.90034 576.529846,4869.86698 723.229393,4792.93417 C798.22113,4753.60639 837.405979,4675.92812 884.185748,4609.45131 C955.16936,4508.57948 1077.18023,4467.96575 1190.31754,4434.55288 C1277.85145,4408.70201 1455.62312,4375.06831 1462.77229,4258.64301 C1463.44153,4247.71361 1462.64528,4236.74761 1460.2553,4226.0549 L-85.7388077,4226 Z" id="Footer_Curve1" transform="translate(688.500000, 4733.000000) scale(1, -1) rotate(15.000000) translate(-688.500000, -4733.000000) "></path>
        </g>
    </g>
</svg>