<?xml version="1.0" encoding="UTF-8"?>
<svg width="1440px" height="640px" viewBox="0 0 1440 640" version="1.1" xmlns="http://www.w3.org/2000/svg" xmlns:xlink="http://www.w3.org/1999/xlink">
    <!-- Generator: Sketch 50.2 (55047) - http://www.bohemiancoding.com/sketch -->
    <title>Header Curve 1</title>
    <desc>Created with Sketch.</desc>
    <defs></defs>
    <g id="Page-1" stroke="none" stroke-width="1" fill="none" fill-rule="evenodd">
        <g id="Home-Desktop-HD" fill="#282561">
            <path d="M1445.90718,-94 L-6.9998112,-94 L-6.99962016,-60.4763773 L-6.99962016,-38.5265303 L-6.9998112,648 C-7.03190491,645.088409 -2.96402576,641.942923 -1.11168793,640.18871 C3.22657604,636.091512 7.97647065,632.409681 12.7102229,628.780274 C51.0281917,599.40224 87.3848616,567.14891 130.24691,544.332038 C134.46007,542.085838 138.717622,539.920292 143.011495,537.835399 C183.803283,518.018837 228.081825,505.162671 272.55811,497.052963 C320.928745,488.237536 370.110534,484.918645 419.187397,483.228955 C457.42869,481.902205 495.698231,481.575558 533.947595,480.478671 C652.525465,477.058963 771.571464,454.488084 846.02011,353.082452 C927.773181,241.72418 1054.92265,164.982386 1191.32574,143.322891 C1224.59922,138.04412 1446,129.156106 1446,89.1318119 L1446,-67.9771518 L1445.90718,-94 Z" id="Header-Curve-1"></path>
        </g>
    </g>
</svg>