<?xml version="1.0" encoding="UTF-8"?>
<svg width="1440px" height="1451px" viewBox="0 0 1440 1451" version="1.1" xmlns="http://www.w3.org/2000/svg" xmlns:xlink="http://www.w3.org/1999/xlink">
    <!-- Generator: Sketch 50.2 (55047) - http://www.bohemiancoding.com/sketch -->
    <title>Mid_Curve2</title>
    <desc>Created with Sketch.</desc>
    <defs></defs>
    <g id="Page-1" stroke="none" stroke-width="1" fill="none" fill-rule="evenodd">
        <g id="Home-Desktop-HD" transform="translate(0.000000, -1816.000000)" fill="#373469">
            <path d="M-71.6653308,3239.81887 C-72.3583961,3241.75665 41.9797147,3264.94822 53.6647067,3265.99877 C137.388756,3273.51153 207.507537,3238.1062 267.181781,3181.27936 C322.181145,3128.9019 369.909945,3066.05426 437.627277,3031.65093 C570.466257,2964.1685 734.638851,3026.15982 878.447685,2987.17468 C939.627249,2970.59098 995.633103,2935.39312 1037.10224,2887.46064 C1095.22261,2820.2872 1125.31135,2729.37484 1194.88274,2674.14589 C1249.71877,2630.60984 1314.65943,2622.04211 1382.01037,2631.02917 C1408.6073,2634.57809 1493.99559,2639.20405 1494,2678.67474 L1494,1787 C1493.24072,1851.29547 1106.47057,1815.74889 1071.45091,1816.64495 C978.491877,1819.01531 876.425877,1851.088 831.928439,1932.7308 C805.366823,1981.4534 803.415645,2040.70798 776.54502,2089.25402 C752.323051,2133.01078 707.860928,2165.00402 658.679781,2174.07936 C572.382119,2189.99653 489.858794,2138.90357 405.74186,2113.8934 C307.77245,2084.76049 199.671927,2092.39684 106.143432,2133.26679 C61.7077953,2152.68874 -81.6993266,2219.65031 -80.9974325,2278.48115 C-80.9974325,2278.4988 -69.5464052,3235.56811 -71.6653308,3239.81887" id="Mid_Curve2"></path>
        </g>
    </g>
</svg>