<?xml version="1.0" encoding="UTF-8"?>
<svg width="1440px" height="1337px" viewBox="0 0 1440 1337" version="1.1" xmlns="http://www.w3.org/2000/svg" xmlns:xlink="http://www.w3.org/1999/xlink">
    <!-- Generator: Sketch 50.2 (55047) - http://www.bohemiancoding.com/sketch -->
    <title>Mid_Curve1</title>
    <desc>Created with Sketch.</desc>
    <defs></defs>
    <g id="Page-1" stroke="none" stroke-width="1" fill="none" fill-rule="evenodd">
        <g id="Home-Desktop-HD" transform="translate(0.000000, -1851.000000)" fill="#282561">
            <path d="M-113,2466.56775 C-113,2466.56775 -113,3175.27032 -113,3176.14799 C-113,3176.15632 -113,3176.16382 -112.999117,3176.22383 C-112.286544,3231.90335 141.052007,3153.29791 170.336358,3143.96617 C316.374011,3097.42502 408.708235,2955.72701 564.050832,2928.98371 C661.571738,2912.19475 760.304105,2942.217 860.56581,2918.57927 C947.063473,2898.18798 1028.94133,2851.53431 1076.855,2780.56445 C1110.83156,2730.23676 1128.59819,2667.71264 1178.42176,2630.97331 C1265.55341,2566.72637 1385.62322,2616.50396 1481.92737,2632.42358 C1517.62046,2638.32385 1683,2672.1468 1683,2605.76696 L1683,1600 C1683,1646.37029 1638.91409,1700.13778 1609.12291,1732.42962 C1486.6964,1865.13012 1329.05096,1900.41751 1150.6332,1895.36407 C1045.24309,1892.37935 926.511007,1899.18812 855.965434,1973.15603 C820.346516,2010.50297 802.857141,2059.65961 779.184189,2104.67048 C755.511237,2149.68135 720.656105,2194.49884 669.280237,2207.67129 C604.345181,2224.31939 540.016738,2185.60636 476.310803,2165.16089 C214.207697,2081.04109 50.0457989,2321.00653 -113,2466.56775" id="Mid_Curve1"></path>
        </g>
    </g>
</svg>