<?xml version="1.0" encoding="utf-8"?>
<!-- Generator: Adobe Illustrator 22.1.0, SVG Export Plug-In . SVG Version: 6.00 Build 0)  -->
<svg version="1.1" xmlns="http://www.w3.org/2000/svg" xmlns:xlink="http://www.w3.org/1999/xlink" x="0px" y="0px"
   viewBox="0 0 1440 1466.2" style="enable-background:new 0 0 1440 1466.2;" xml:space="preserve">
<style type="text/css">
  .st0{fill:#373469;}
  .st1{fill:#2A2563;}
</style>
<g id="Layer_4">
  <path class="st0" d="M0,386.8c0,0,222-166.6,471.6-51.1c140.4,65,225.7,25.8,273.4-20.9c27.7-27.1,46.9-61.7,56.1-99.4
    c16.4-67,84-259,311.7-199.6c274.3,71.6,327.2,0,327.2,0v818.5c0,0-230.4-64-325.5,134.2s-256,245.9-407.1,227
    s-284.5,13.8-374.9,113.1S179.7,1490.4-0.8,1450.8L0,386.8z"/>
</g>
<g id="Layer_2">
  <path class="st1" d="M0,552.8c0,0,264.9-312.2,516.4-174.5s261.3-95.6,303.2-155.8c32-46.1,32.2-139.4,291.8-142.1
    c259.6-2.6,328.5-30.7,328.5-30.7v772.9c0,0-226.9-84-308.1,59.4c-39.6,69.9-69.4,123.5-120,163.1c-60.6,47.5-117.3,56.6-228,75.1
    c-30.3,5-61.1,6.8-91.8,5.3c-73.1-3.7-186.7-7.4-283.8,71.1c-3.5,2.8-158.3,172.1-407.5,189.8L0,552.8z"/>
</g>
</svg>

