<?xml version="1.0" encoding="UTF-8"?>
<svg width="19px" height="19px" viewBox="0 0 19 19" version="1.1" xmlns="http://www.w3.org/2000/svg" xmlns:xlink="http://www.w3.org/1999/xlink">
    <!-- Generator: Sketch 50.2 (55047) - http://www.bohemiancoding.com/sketch -->
    <title>fb</title>
    <desc>Created with Sketch.</desc>
    <defs></defs>
    <g id="Page-1" stroke="none" stroke-width="1" fill="none" fill-rule="evenodd">
        <g id="Home-Desktop-HD" transform="translate(-292.000000, -33.000000)" fill="#FFFFFF">
            <path d="M307.868254,33 L295.115379,33 C293.394795,33 292,34.3947788 292,36.1153427 L292,48.8682169 C292,50.5978488 293.402168,52 295.13182,52 L302.148555,52 L302.148555,44.6421529 L299.672515,44.6421529 L299.672515,41.7746693 L302.148555,41.7746693 L302.148555,39.6599785 C302.148555,37.2059375 303.647375,35.8696216 305.836553,35.8696216 C306.885285,35.8696216 307.786641,35.947695 308.049248,35.98264 L308.049248,38.5473403 L306.530743,38.5480038 C305.340313,38.5480038 305.109776,39.1137596 305.109776,39.9439622 L305.109776,41.7746693 L307.949277,41.7746693 L307.579475,44.6421529 L305.109776,44.6421529 L305.109776,52 L307.868254,52 C309.597906,52 311,50.5978488 311,48.8682169 L311,36.1317831 C311,34.4021512 309.597906,33 307.868254,33" id="fb"></path>
        </g>
    </g>
</svg>