<?xml version="1.0" encoding="UTF-8"?>
<svg width="91px" height="40px" viewBox="0 0 91 40" version="1.1" xmlns="http://www.w3.org/2000/svg" xmlns:xlink="http://www.w3.org/1999/xlink">
    <!-- Generator: Sketch 50.2 (55047) - http://www.bohemiancoding.com/sketch -->
    <title>Logo-Small_footer</title>
    <desc>Created with Sketch.</desc>
    <defs>
        <polygon id="path-1" points="0.00793294527 0.269230769 11.8218869 0.269230769 11.8218869 13.8944528 0.00793294527 13.8944528"></polygon>
    </defs>
    <g id="Page-1" stroke="none" stroke-width="1" fill="none" fill-rule="evenodd">
        <g id="Home-Desktop-HD" transform="translate(-98.000000, -4964.000000)">
            <g id="Logo-Small_footer" transform="translate(98.000000, 4964.000000)">
                <g id="Group-3" transform="translate(3.003300, 0.038462)">
                    <mask id="mask-2" fill="white">
                        <use xlink:href="#path-1"></use>
                    </mask>
                    <g id="Clip-2"></g>
                    <path d="M11.2529759,4.42836923 L4.32105842,12.9923692 C3.45700891,14.0597538 1.9079066,14.2003692 0.878074917,13.3046769 C-0.151456436,12.4089846 -0.287205611,10.8028308 0.576843894,9.73544615 L7.50876139,1.17144615 C8.37281089,0.103753846 9.9219132,-0.0368615385 10.9517449,0.858830769 C11.9812762,1.75483077 12.1170254,3.36098462 11.2529759,4.42836923" id="Fill-1" fill="#FFFFFF" mask="url(#mask-2)"></path>
                </g>
                <path d="M22.6621535,30.1519385 L15.7164208,38.7331692 C14.8562756,39.7962462 13.3134802,39.9359385 12.2881535,39.0439385 C11.2625264,38.1522462 11.1276782,36.5528615 11.9878234,35.4897846 L18.9335561,26.9085538 C19.7940017,25.8454769 21.336797,25.7057846 22.3621238,26.5974769 C23.3877508,27.4894769 23.522599,29.0888615 22.6621535,30.1519385" id="Fill-4" fill="#FFFFFF"></path>
                <path d="M19.9728182,9.42236923 L11.612531,19.7512923 C10.7529865,20.8134462 9.21169274,20.9531385 8.18756733,20.0620615 L8.187267,20.0620615 C7.16314158,19.1709846 7.0282934,17.5731385 7.88783795,16.5112923 L16.2481251,6.18236923 C17.1073693,5.12052308 18.6489634,4.98052308 19.6730888,5.8716 C20.6975145,6.76267692 20.8323627,8.36052308 19.9728182,9.42236923" id="Fill-6" fill="#FFFFFF"></path>
                <path d="M7.86017756,24.3872308 L4.29075512,28.7973846 C3.43121056,29.8592308 1.88991683,29.9989231 0.865491089,29.1081538 C-0.158634323,28.2167692 -0.293482508,26.6192308 0.566062046,25.5573846 L4.13548449,21.1472308 C4.99502904,20.0853846 6.53632277,19.9453846 7.56044818,20.8364615 C8.58487393,21.7272308 8.71972211,23.3253846 7.86017756,24.3872308" id="Fill-8" fill="#FFFFFF"></path>
                <path d="M25.6830531,14.3896308 L22.1136307,18.7997846 C21.2540861,19.8616308 19.7127924,20.0013231 18.6883667,19.1102462 C17.6642413,18.2191692 17.5293931,16.6213231 18.3886373,15.5594769 L21.9583601,11.1496308 C22.8176043,10.0877846 24.3591983,9.94778462 25.3833238,10.8388615 C26.4077495,11.7299385 26.5425977,13.3277846 25.6830531,14.3896308" id="Fill-10" fill="#FFFFFF"></path>
                <path d="M18.3504653,23.4527385 L10.0042937,33.7644308 C9.14414851,34.8272 7.60105281,34.9672 6.57572607,34.0752 C5.55039934,33.1832 5.41555116,31.5838154 6.2759967,30.5210462 L14.621868,20.2093538 C15.4823135,19.1465846 17.0251089,19.0065846 18.0504356,19.8985846 C19.0757624,20.7905846 19.2109109,22.3899692 18.3504653,23.4527385" id="Fill-12" fill="#FFFFFF"></path>
                <path d="M31.6796528,13.7650769 L31.6796528,19.878 L35.3797188,19.878 C36.4359795,19.878 37.2732997,19.6023077 37.8916792,19.0524615 C38.5100587,18.5016923 38.8190983,17.7376923 38.8190983,16.7601538 C38.8190983,15.8370769 38.5235736,15.1069231 37.9319234,14.5703077 C37.3402733,14.0333846 36.5227749,13.7650769 35.480029,13.7650769 L31.6796528,13.7650769 Z M31.6796528,12.6964615 L35.0487551,12.6964615 C36.0782865,12.6761538 36.8756627,12.4272308 37.4405835,11.9506154 C38.005204,11.4733846 38.2878145,10.7786154 38.2878145,9.86630769 C38.2878145,8.90569231 37.9952931,8.19738462 37.4105505,7.74076923 C36.8255076,7.28446154 35.941336,7.05646154 34.7580356,7.05646154 L31.6796528,7.05646154 L31.6796528,12.6964615 Z M30.4461974,20.946 L30.4461974,5.98815385 L34.7580356,5.98815385 C36.3224548,5.98815385 37.5090587,6.31861538 38.3178475,6.98015385 C39.1266363,7.64138462 39.5311809,8.61615385 39.5311809,9.90476923 C39.5311809,10.6792308 39.3257551,11.3524615 38.9146033,11.9247692 C38.5034515,12.4967692 37.9400323,12.9063077 37.2249465,13.1527692 C38.0739795,13.3447692 38.7572304,13.7724615 39.2756,14.4364615 C39.7936693,15.1001538 40.0525538,15.8672308 40.0525538,16.7364615 C40.0525538,18.0576923 39.6365967,19.0896923 38.8043822,19.8321538 C37.9718673,20.5746154 36.8137947,20.946 35.3295637,20.946 L30.4461974,20.946 Z" id="Fill-14" fill="#FFFFFF"></path>
                <path d="M43.2916432,15.5628615 C43.2916432,16.8917846 43.6277125,17.9822462 44.2992505,18.8351692 C44.9713891,19.6877846 45.8519568,20.1142462 46.9415541,20.1142462 C48.0245442,20.1142462 48.9021086,19.6877846 49.5739469,18.8351692 C50.2457851,17.9822462 50.5818545,16.8573231 50.5818545,15.4604 L50.5818545,15.2237846 C50.5818545,14.3748615 50.4277851,13.5973231 50.1205475,12.8917846 C49.8127092,12.1865538 49.3817356,11.6400923 48.8267257,11.2533231 C48.2720162,10.8665538 47.6368182,10.6727077 46.9217323,10.6727077 C45.8519568,10.6727077 44.979498,11.1025538 44.3043561,11.9619385 C43.6292142,12.8216308 43.2916432,13.9468615 43.2916432,15.3370154 L43.2916432,15.5628615 Z M42.0882208,15.2237846 C42.0882208,14.1554769 42.2906432,13.1933231 42.6948875,12.3370154 C43.099432,11.4810154 43.6709601,10.8151692 44.4097719,10.3388615 C45.1482835,9.86286154 45.9856036,9.62501538 46.9217323,9.62501538 C48.3657191,9.62501538 49.5355046,10.1437846 50.4313891,11.1813231 C51.3269733,12.2188615 51.7750657,13.5942462 51.7750657,15.3062462 L51.7750657,15.5628615 C51.7750657,16.6382462 51.5729436,17.6059385 51.168399,18.4653231 C50.7638545,19.3250154 50.1938281,19.9874769 49.4586201,20.4530154 C48.7231119,20.9191692 47.8842901,21.1517846 46.9415541,21.1517846 C45.5044749,21.1517846 44.3361911,20.6330154 43.437003,19.5951692 C42.5378149,18.5576308 42.0882208,17.1828615 42.0882208,15.4705538 L42.0882208,15.2237846 Z" id="Fill-16" fill="#FFFFFF"></path>
                <path d="M60.7499482,18.1209846 C60.7499482,17.5117538 60.5108855,17.0216 60.0327601,16.6520615 C59.554935,16.2819077 58.8344432,15.9926769 57.8718855,15.7837538 C56.9093277,15.5751385 56.1624069,15.3354462 55.6308228,15.0646769 C55.0992386,14.7942154 54.704605,14.4637538 54.4475224,14.0732923 C54.1898393,13.6828308 54.061298,13.2102154 54.061298,12.6554462 C54.061298,11.7788308 54.4189911,11.0548308 55.1343772,10.4825231 C55.8497634,9.91083077 56.7654696,9.62498462 57.8817964,9.62498462 C59.0918261,9.62498462 60.0630934,9.93144615 60.7946974,10.5443692 C61.526902,11.1572923 61.8930043,11.9569846 61.8930043,12.9431385 L60.6895818,12.9431385 C60.6895818,12.2926769 60.4237898,11.7514462 59.8925059,11.3197538 C59.3609218,10.8883692 58.6908855,10.6726769 57.8817964,10.6726769 C57.0928294,10.6726769 56.4597337,10.8523692 55.9816083,11.2120615 C55.5034828,11.5717538 55.2647205,12.0391385 55.2647205,12.6145231 C55.2647205,13.1692923 55.4632386,13.5991385 55.8614762,13.9037538 C56.2591132,14.2086769 56.9844102,14.4877538 58.0373673,14.7409846 C59.0903244,14.9945231 59.8792914,15.2649846 60.403968,15.5526769 C60.9286446,15.8403692 61.3181726,16.1862154 61.5719515,16.5902154 C61.8260307,16.9945231 61.9530703,17.4840615 61.9530703,18.0594462 C61.9530703,18.9979077 61.5836644,19.7477538 60.8448525,20.3092923 C60.1060406,20.8711385 59.1419812,21.1517538 57.9523739,21.1517538 C56.6888855,21.1517538 55.6638591,20.8382154 54.878496,20.2117538 C54.093133,19.5849846 53.7003013,18.7923692 53.7003013,17.8332923 L54.9037238,17.8332923 C54.9502749,18.5523692 55.2464003,19.1123692 55.791199,19.5129846 C56.3359977,19.9136 57.0561891,20.1142154 57.9523739,20.1142154 C58.7875917,20.1142154 59.463034,19.9256 59.9777997,19.5492923 C60.4925653,19.1723692 60.7499482,18.6963692 60.7499482,18.1209846" id="Fill-18" fill="#FFFFFF"></path>
                <path d="M66.5157442,6.98458462 L66.5157442,9.83043077 L68.7619125,9.83043077 L68.7619125,10.8372 L66.5157442,10.8372 L66.5157442,18.2525846 C66.5157442,18.8698154 66.6241634,19.3292 66.8416023,19.6307385 C67.0590413,19.9325846 67.4215396,20.0830462 67.929698,20.0830462 C68.1303185,20.0830462 68.4543746,20.0492 68.9021667,19.9802769 L68.9523218,20.9784308 C68.6381766,21.0938154 68.2105066,21.1516615 67.6690116,21.1516615 C66.8467079,21.1516615 66.2481502,20.9070462 65.8739389,20.4172 C65.4994274,19.9276615 65.3123218,19.2067385 65.3123218,18.2544308 L65.3123218,10.8372 L63.316929,10.8372 L63.316929,9.83043077 L65.3123218,9.83043077 L65.3123218,6.98458462 L66.5157442,6.98458462 Z" id="Fill-20" fill="#FFFFFF"></path>
                <path d="M71.58967,15.5628615 C71.58967,16.8917846 71.9257393,17.9822462 72.5972772,18.8351692 C73.2694158,19.6877846 74.1499835,20.1142462 75.2395809,20.1142462 C76.3228713,20.1142462 77.2001353,19.6877846 77.8719736,18.8351692 C78.5438119,17.9822462 78.8798812,16.8573231 78.8798812,15.4604 L78.8798812,15.2237846 C78.8798812,14.3748615 78.7261122,13.5973231 78.4185743,12.8917846 C78.110736,12.1865538 77.679462,11.6400923 77.1253531,11.2533231 C76.5700429,10.8665538 75.9351452,10.6727077 75.2197591,10.6727077 C74.1499835,10.6727077 73.2775248,11.1025538 72.6023828,11.9619385 C71.9272409,12.8216308 71.58967,13.9468615 71.58967,15.3370154 L71.58967,15.5628615 Z M70.3862475,15.2237846 C70.3862475,14.1554769 70.58867,13.1933231 70.9932145,12.3370154 C71.3974587,11.4810154 71.9689868,10.8151692 72.7077987,10.3388615 C73.4466106,9.86286154 74.2839307,9.62501538 75.2197591,9.62501538 C76.6637459,9.62501538 77.8335314,10.1437846 78.7294158,11.1813231 C79.625,12.2188615 80.0733927,13.5942462 80.0733927,15.3062462 L80.0733927,15.5628615 C80.0733927,16.6382462 79.8709703,17.6059385 79.4664257,18.4653231 C79.0615809,19.3250154 78.4918548,19.9874769 77.7569472,20.4530154 C77.0214389,20.9191692 76.1823168,21.1517846 75.2395809,21.1517846 C73.8025017,21.1517846 72.6342178,20.6330154 71.7350297,19.5951692 C70.8358416,18.5576308 70.3862475,17.1828615 70.3862475,15.4705538 L70.3862475,15.2237846 Z" id="Fill-22" fill="#FFFFFF"></path>
                <path d="M83.6932106,9.83027692 L83.7334548,11.7308923 C84.1410026,11.0462769 84.6491611,10.5238154 85.2576297,10.1641231 C85.8654977,9.80473846 86.5376363,9.62504615 87.2731446,9.62504615 C88.4363228,9.62504615 89.3021743,9.96043077 89.8700983,10.6315077 C90.4383228,11.3032 90.7260389,12.3099692 90.7326462,13.6521231 L90.7326462,20.9459692 L89.539435,20.9459692 L89.539435,13.6416615 C89.5325274,12.6490462 89.3271017,11.9090462 88.9225571,11.4225846 C88.5180125,10.9364308 87.8711017,10.6933538 86.9824251,10.6933538 C86.2403096,10.6933538 85.5834878,10.9315077 85.0119597,11.4072 C84.4401314,11.8835077 84.0172667,12.5256615 83.7433657,13.3336615 L83.7433657,20.9459692 L82.5501545,20.9459692 L82.5501545,9.83027692 L83.6932106,9.83027692 Z" id="Fill-24" fill="#FFFFFF"></path>
                <polygon id="Fill-26" fill="#FFFFFF" points="42.3160211 39.5254462 39.3076152 39.5254462 39.3076152 33.1146769 33.441569 33.1146769 33.441569 39.5254462 30.433163 39.5254462 30.433163 24.5672923 33.441569 24.5672923 33.441569 30.6285231 39.3076152 30.6285231 39.3076152 24.5672923 42.3160211 24.5672923"></polygon>
                <path d="M48.6434644,37.4602462 C49.0714347,37.4602462 49.465768,37.3627077 49.8264644,37.1676308 C50.1877614,36.9722462 50.4550551,36.7100923 50.6289462,36.3814769 L50.6289462,34.4707077 L49.5459561,34.4707077 C48.095362,34.4707077 47.3232135,34.9842462 47.2295106,36.0116308 L47.2195997,36.1864 C47.2195997,36.5562462 47.3466393,36.8611692 47.6004182,37.1008615 C47.8544974,37.3405538 48.2022795,37.4602462 48.6434644,37.4602462 Z M51.0397977,39.5254769 C50.9061508,39.2584 50.8094446,38.9260923 50.7493785,38.5288615 C50.0475073,39.3300923 49.1348043,39.7307077 48.01157,39.7307077 C46.948702,39.7307077 46.067834,39.4159385 45.3695667,38.7857846 C44.6706987,38.1556308 44.3214149,37.3611692 44.3214149,36.4024 C44.3214149,35.2242462 44.7475832,34.3202462 45.5999198,33.6900923 C46.4525568,33.0599385 47.6842102,32.7414769 49.2951805,32.7347077 L50.6289462,32.7347077 L50.6289462,32.0974769 C50.6289462,31.5839385 50.500405,31.1728615 50.2427218,30.8645538 C49.9853389,30.5565538 49.5792927,30.4027077 49.0245832,30.4027077 C48.5365469,30.4027077 48.1536261,30.5224 47.8761211,30.7617846 C47.5986162,31.0020923 47.460164,31.3307077 47.460164,31.7485538 L44.5622795,31.7485538 C44.5622795,31.1048615 44.7559924,30.5088615 45.1437185,29.9605538 C45.5314446,29.4128615 46.0795469,28.9830154 46.7883257,28.6716308 C47.4971046,28.3599385 48.2923785,28.2039385 49.1750485,28.2039385 C50.5118175,28.2039385 51.5731838,28.5479385 52.3585469,29.2362462 C53.1439099,29.9248615 53.5370419,30.8922462 53.5370419,32.1387077 L53.5370419,36.9568615 C53.5433488,38.0119385 53.6875073,38.8097846 53.9680155,39.3507077 L53.9680155,39.5254769 L51.0397977,39.5254769 Z" id="Fill-28" fill="#FFFFFF"></path>
                <path d="M60.275697,37.3370462 C60.8102845,37.3370462 61.244862,37.1865846 61.5791294,36.8850462 C61.9133967,36.5838154 62.0869875,36.1832 62.1005023,35.6828923 L64.8181888,35.6828923 C64.8115815,36.4364308 64.6109611,37.1262769 64.2163274,37.7533538 C63.8219941,38.3798154 63.282301,38.8662769 62.5969479,39.2121231 C61.9115947,39.5576615 61.154763,39.7305846 60.3255518,39.7305846 C58.7746475,39.7305846 57.5514033,39.2259692 56.6555188,38.2152 C55.7596343,37.2053538 55.3118422,35.8099692 55.3118422,34.0290462 L55.3118422,33.8336615 C55.3118422,32.1216615 55.7563307,30.7552 56.6456079,29.7345846 C57.5345848,28.7142769 58.7548257,28.2038154 60.30573,28.2038154 C61.6626211,28.2038154 62.7504165,28.5995077 63.5697168,29.3905846 C64.3884165,30.1816615 64.8046739,31.2345846 64.8181888,32.5493538 L62.1005023,32.5493538 C62.0869875,31.9715077 61.9133967,31.5013538 61.5791294,31.1398154 C61.244862,30.7785846 60.8036772,30.5976615 60.2555749,30.5976615 C59.580433,30.5976615 59.0704726,30.8499692 58.7262944,31.3539692 C58.3818158,31.8579692 58.2097267,32.6764308 58.2097267,33.8078154 L58.2097267,34.1164308 C58.2097267,35.2622769 58.3803142,36.0853538 58.7211888,36.5859692 C59.0623637,37.0868923 59.580433,37.3370462 60.275697,37.3370462" id="Fill-30" fill="#FFFFFF"></path>
                <polygon id="Fill-32" fill="#FFFFFF" points="70.4135776 35.0666154 69.3705314 36.1352308 69.3705314 39.5253846 66.4726469 39.5253846 66.4726469 23.7450769 69.3705314 23.7450769 69.3705314 32.4878462 69.9321485 31.7484615 72.709901 28.4093846 76.1892244 28.4093846 72.2687162 33.0429231 76.5303993 39.5253846 73.2012409 39.5253846"></polygon>
                <path d="M83.3192696,36.4536308 C83.3192696,36.0905538 83.1435766,35.8050154 82.7924908,35.5957846 C82.441405,35.3868615 81.8782861,35.2000923 81.1031343,35.0357846 C78.5223983,34.4810154 77.2321805,33.3576308 77.2321805,31.6659385 C77.2321805,30.6797846 77.6319198,29.8567077 78.4304974,29.1951692 C79.2290749,28.5345538 80.2736228,28.2037846 81.5644413,28.2037846 C82.9411541,28.2037846 84.0424644,28.5364 84.8680716,29.2004 C85.6939792,29.8650154 86.106933,30.7280923 86.106933,31.7893231 L83.2090485,31.7893231 C83.2090485,31.3647077 83.0751013,31.0136308 82.8078076,30.7364 C82.5399132,30.4591692 82.1224545,30.3200923 81.5545304,30.3200923 C81.0658934,30.3200923 80.6883785,30.4333231 80.4213851,30.6591692 C80.1534908,30.8853231 80.0201442,31.1730154 80.0201442,31.5222462 C80.0201442,31.8508615 80.1718109,32.1164 80.4760452,32.3185538 C80.7805799,32.5207077 81.2938439,32.6951692 82.015537,32.8425538 C82.7375304,32.9899385 83.345999,33.1557846 83.8406426,33.3407077 C85.3714248,33.9160923 86.136966,34.9124 86.136966,36.3302462 C86.136966,37.3440923 85.7122993,38.1640923 84.8635667,38.7908615 C84.013933,39.4176308 82.9180287,39.7305538 81.5743521,39.7305538 C80.6649528,39.7305538 79.857966,39.5644 79.1524908,39.2324 C78.4470155,38.9004 77.8944083,38.4453231 77.4931673,37.8662462 C77.0919264,37.2874769 76.8916063,36.6628615 76.8916063,35.9911692 L79.6390254,35.9911692 C79.6657548,36.5188615 79.856164,36.9225538 80.2105535,37.2037846 C80.5646426,37.4847077 81.0394644,37.6247077 81.6347185,37.6247077 C82.1891277,37.6247077 82.6086888,37.5167077 82.892801,37.3010154 C83.1769132,37.0853231 83.3192696,36.8028615 83.3192696,36.4536308" id="Fill-34" fill="#FFFFFF"></path>
            </g>
        </g>
    </g>
</svg>