<?xml version="1.0" encoding="UTF-8"?>
<svg width="77px" height="34px" viewBox="0 0 77 34" version="1.1" xmlns="http://www.w3.org/2000/svg" xmlns:xlink="http://www.w3.org/1999/xlink">
    <!-- Generator: Sketch 50.2 (55047) - http://www.bohemiancoding.com/sketch -->
    <title>Logo-Small_header</title>
    <desc>Created with Sketch.</desc>
    <defs></defs>
    <g id="Page-1" stroke="none" stroke-width="1" fill="none" fill-rule="evenodd">
        <g id="Home-Desktop-HD" transform="translate(-109.000000, -23.000000)" fill="#FFFFFF">
            <g id="Logo-Small_header" transform="translate(109.000000, 23.000000)">
                <path d="M12.063003,3.79680615 L6.19753432,11.0762062 C5.46641551,11.9834831 4.15563663,12.1030062 3.28424059,11.3416677 C2.41309868,10.5803292 2.29823399,9.21509846 3.02935281,8.30782154 L8.89482145,1.02842154 C9.62594026,0.120883077 10.9367191,0.00136 11.8081152,0.762698462 C12.6792571,1.52429846 12.7941218,2.88952923 12.063003,3.79680615" id="Fill-1"></path>
                <path d="M19.1756683,25.6291477 L13.2985099,32.9231938 C12.5706947,33.8268092 11.2652525,33.9455477 10.3976683,33.1873477 C9.52983003,32.4294092 9.41572772,31.0699323 10.1435429,30.1663169 L16.0207013,22.8722708 C16.7487706,21.9686554 18.0542129,21.8499169 18.921797,22.6078554 C19.7896353,23.3660554 19.9037376,24.7255323 19.1756683,25.6291477" id="Fill-4"></path>
                <path d="M16.9000769,8.00901385 L9.82598779,16.7885985 C9.09868086,17.6914292 7.79450924,17.8101677 6.92794158,17.0527523 L6.92768746,17.0527523 C6.0611198,16.2953369 5.94701749,14.9371677 6.67432442,14.0345985 L13.7484135,5.25501385 C14.4754663,4.35244462 15.7798921,4.23344462 16.6464597,4.99086 C17.5132815,5.74827538 17.6273838,7.10644462 16.9000769,8.00901385" id="Fill-6"></path>
                <path d="M6.65091947,20.7291462 L3.63063894,24.4777769 C2.90333201,25.3803462 1.5991604,25.4990846 0.732338614,24.7419308 C-0.134229043,23.9842538 -0.248331353,22.6263462 0.478975578,21.7237769 L3.49925611,17.9751462 C4.22656304,17.0725769 5.53073465,16.9535769 6.39730231,17.7109923 C7.26412409,18.4681462 7.3782264,19.8265769 6.65091947,20.7291462" id="Fill-8"></path>
                <path d="M21.7318142,12.2311862 L18.7115337,15.9798169 C17.9842267,16.8823862 16.6800551,17.0011246 15.8132333,16.2437092 C14.9466657,15.4862938 14.8325634,14.1281246 15.5596162,13.2255554 L18.5801508,9.47718615 C19.3072036,8.57461692 20.6116294,8.45561692 21.478197,9.21303231 C22.3450188,9.97044769 22.4591211,11.3286169 21.7318142,12.2311862" id="Fill-10"></path>
                <path d="M15.5273168,19.9348277 L8.46517162,28.6997662 C7.73735644,29.60312 6.43166007,29.72212 5.56407591,28.96392 C4.69649175,28.20572 4.58238944,26.8462431 5.31045875,25.9428892 L12.3723498,17.1779508 C13.1004191,16.2745969 14.4058614,16.1555969 15.2734455,16.9137969 C16.1410297,17.6719969 16.2553861,19.0314738 15.5273168,19.9348277" id="Fill-12"></path>
                <path d="M26.8058601,11.7003154 L26.8058601,16.8963 L29.9366851,16.8963 C30.8304442,16.8963 31.5389459,16.6619615 32.0621901,16.1945923 C32.5854343,15.7264385 32.8469294,15.0770385 32.8469294,14.2461308 C32.8469294,13.4615154 32.59687,12.8408846 32.0962429,12.3847615 C31.5956158,11.9283769 30.9038865,11.7003154 30.021563,11.7003154 L26.8058601,11.7003154 Z M26.8058601,10.7919923 L29.6566389,10.7919923 C30.5277809,10.7747308 31.2024838,10.5631462 31.6804937,10.1580231 C32.1582495,9.75237692 32.3973815,9.16182308 32.3973815,8.38636154 C32.3973815,7.56983846 32.1498634,6.96777692 31.6550812,6.57965385 C31.1600449,6.19179231 30.4118997,5.99799231 29.4106455,5.99799231 L26.8058601,5.99799231 L26.8058601,10.7919923 Z M25.762167,17.8041 L25.762167,5.08993077 L29.4106455,5.08993077 C30.7343848,5.08993077 31.7384343,5.37082308 32.4227941,5.93313077 C33.1071538,6.49517692 33.4494607,7.32373077 33.4494607,8.41905385 C33.4494607,9.07734615 33.2756389,9.64959231 32.9277413,10.1360538 C32.5798436,10.6222538 32.1031043,10.9703615 31.4980317,11.1798538 C32.2164442,11.3430538 32.7945795,11.7065923 33.2332,12.2709923 C33.6715663,12.8351308 33.8906224,13.4871462 33.8906224,14.2259923 C33.8906224,15.3490385 33.5386587,16.2262385 32.8344772,16.8573308 C32.1300416,17.4884231 31.150134,17.8041 29.8942462,17.8041 L25.762167,17.8041 Z" id="Fill-14"></path>
                <path d="M36.6313904,13.2284323 C36.6313904,14.3580169 36.9157568,15.2849092 37.4839812,16.0098938 C38.0527139,16.7346169 38.7978096,17.0971092 39.7197766,17.0971092 C40.6361528,17.0971092 41.3787073,16.7346169 41.9471858,16.0098938 C42.5156644,15.2849092 42.8000307,14.3287246 42.8000307,13.14134 L42.8000307,12.9402169 C42.8000307,12.2186323 42.6696644,11.5577246 42.4096941,10.9580169 C42.1492155,10.3585708 41.7845455,9.89407846 41.3149218,9.56532462 C40.8455521,9.23657077 40.3080769,9.07180154 39.7030043,9.07180154 C38.7978096,9.07180154 38.0595752,9.43717077 37.4883013,10.1676477 C36.9170274,10.8983862 36.6313904,11.8548323 36.6313904,13.0364631 L36.6313904,13.2284323 Z M35.6131099,12.9402169 C35.6131099,12.0321554 35.7843904,11.2143246 36.1264432,10.4864631 C36.4687502,9.75886308 36.9523508,9.19289385 37.5774993,8.78803231 C38.2023937,8.38343231 38.9108954,8.18126308 39.7030043,8.18126308 C40.9248393,8.18126308 41.9146578,8.62221692 42.6727139,9.50412462 C43.4305158,10.3860323 43.809671,11.5551092 43.809671,13.0103092 L43.809671,13.2284323 C43.809671,14.1425092 43.6386446,14.9650477 43.2963376,15.6955246 C42.9540307,16.4262631 42.4717007,16.9893554 41.8496017,17.3850631 C41.2272485,17.7812938 40.5174762,17.9790169 39.7197766,17.9790169 C38.5037865,17.9790169 37.5152386,17.5380631 36.7543871,16.6558938 C35.9935356,15.7739862 35.6131099,14.6054323 35.6131099,13.1499708 L35.6131099,12.9402169 Z" id="Fill-16"></path>
                <path d="M51.4038023,15.4028369 C51.4038023,14.8849908 51.2015185,14.46836 50.7969508,14.1542523 C50.3926373,13.8396215 49.7829904,13.5937754 48.9685185,13.4161908 C48.1540465,13.2388677 47.5220366,13.0351292 47.0722347,12.8049754 C46.6224327,12.5750831 46.2885119,12.2941908 46.0709805,11.9622985 C45.8529409,11.6304062 45.7441752,11.2286831 45.7441752,10.7571292 C45.7441752,10.0120062 46.0468386,9.39660615 46.6521653,8.91014462 C47.2574921,8.42420615 48.0323205,8.18123692 48.9769046,8.18123692 C50.0007759,8.18123692 50.8226175,8.44172923 51.441667,8.96271385 C52.0612248,9.48369846 52.3710036,10.1634369 52.3710036,11.0016677 L51.3527231,11.0016677 C51.3527231,10.4487754 51.1278221,9.98872923 50.6782743,9.62179077 C50.2284723,9.25511385 49.6615185,9.07177538 48.9769046,9.07177538 C48.3093172,9.07177538 47.7736208,9.22451385 47.3690531,9.53025231 C46.9644855,9.83599077 46.7624558,10.2332677 46.7624558,10.7223446 C46.7624558,11.1938985 46.9304327,11.5592677 47.267403,11.8181908 C47.603865,12.0773754 48.2175779,12.3145908 49.1085416,12.5298369 C49.9995053,12.7453446 50.6670927,12.9752369 51.1110498,13.2197754 C51.5550069,13.4643138 51.8846076,13.7582831 52.0993436,14.1016831 C52.3143337,14.4453446 52.4218287,14.8614523 52.4218287,15.3505292 C52.4218287,16.1482215 52.1092545,16.7855908 51.4841059,17.2628985 C50.8589574,17.7404677 50.0432149,17.9789908 49.0366241,17.9789908 C47.9675185,17.9789908 47.1001884,17.7124831 46.4356505,17.1799908 C45.7711125,16.6472369 45.4387165,15.9735138 45.4387165,15.1582985 L46.456997,15.1582985 C46.4963865,15.7695138 46.7469541,16.2455138 47.2079376,16.5860369 C47.6689211,16.92656 48.2783139,17.0970831 49.0366241,17.0970831 C49.7433469,17.0970831 50.3148749,16.93676 50.7504459,16.6168985 C51.1860168,16.2965138 51.4038023,15.8919138 51.4038023,15.4028369" id="Fill-18"></path>
                <path d="M56.2825528,5.93689692 L56.2825528,8.35586615 L58.1831568,8.35586615 L58.1831568,9.21162 L56.2825528,9.21162 L56.2825528,15.5146969 C56.2825528,16.0393431 56.3742921,16.42982 56.5582789,16.6861277 C56.7422657,16.9426969 57.048995,17.0705892 57.4789752,17.0705892 C57.648731,17.0705892 57.9229323,17.04182 58.3018333,16.9832354 L58.3442723,17.8316662 C58.0784571,17.9297431 57.7165825,17.9789123 57.2583944,17.9789123 C56.562599,17.9789123 56.0561271,17.7709892 55.7394868,17.35462 C55.4225924,16.9385123 55.2642723,16.3257277 55.2642723,15.5162662 L55.2642723,9.21162 L53.575863,9.21162 L53.575863,8.35586615 L55.2642723,8.35586615 L55.2642723,5.93689692 L56.2825528,5.93689692 Z" id="Fill-20"></path>
                <path d="M60.5758746,13.2284323 C60.5758746,14.3580169 60.8602409,15.2849092 61.4284653,16.0098938 C61.997198,16.7346169 62.7422937,17.0971092 63.6642607,17.0971092 C64.5808911,17.0971092 65.3231914,16.7346169 65.89167,16.0098938 C66.4601485,15.2849092 66.7445149,14.3287246 66.7445149,13.14134 L66.7445149,12.9402169 C66.7445149,12.2186323 66.6144026,11.5577246 66.3541782,10.9580169 C66.0936997,10.3585708 65.7287756,9.89407846 65.2599142,9.56532462 C64.7900363,9.23657077 64.2528152,9.07180154 63.6474884,9.07180154 C62.7422937,9.07180154 62.0040594,9.43717077 61.4327855,10.1676477 C60.8615116,10.8983862 60.5758746,11.8548323 60.5758746,13.0364631 L60.5758746,13.2284323 Z M59.5575941,12.9402169 C59.5575941,12.0321554 59.7288746,11.2143246 60.0711815,10.4864631 C60.4132343,9.75886308 60.896835,9.19289385 61.5219835,8.78803231 C62.147132,8.38343231 62.8556337,8.18126308 63.6474884,8.18126308 C64.8693234,8.18126308 65.8591419,8.62221692 66.617198,9.50412462 C67.375,10.3860323 67.7544092,11.5551092 67.7544092,13.0103092 L67.7544092,13.2284323 C67.7544092,14.1425092 67.5831287,14.9650477 67.2408218,15.6955246 C66.8982607,16.4262631 66.4161848,16.9893554 65.7943399,17.3850631 C65.1719868,17.7812938 64.4619604,17.9790169 63.6642607,17.9790169 C62.4482706,17.9790169 61.4597228,17.5380631 60.6988713,16.6558938 C59.9380198,15.7739862 59.5575941,14.6054323 59.5575941,13.1499708 L59.5575941,12.9402169 Z" id="Fill-22"></path>
                <path d="M70.817332,8.35573538 L70.8513848,9.97125846 C71.196233,9.38933538 71.6262132,8.94524308 72.1410713,8.63950462 C72.6554211,8.33402769 73.2241538,8.18128923 73.8465069,8.18128923 C74.8307347,8.18128923 75.5633782,8.46636615 76.0439294,9.03678154 C76.5247347,9.60772 76.7681868,10.4634738 76.7737776,11.6043046 L76.7737776,17.8040738 L75.7641373,17.8040738 L75.7641373,11.5954123 C75.7582924,10.7516892 75.5844706,10.1226892 75.2421637,9.70919692 C74.8998568,9.29596615 74.3524706,9.08935077 73.6005135,9.08935077 C72.9725696,9.08935077 72.4167974,9.29178154 71.9331967,9.69612 C71.4493419,10.1009815 71.0915333,10.6468123 70.859771,11.3336123 L70.859771,17.8040738 L69.8501307,17.8040738 L69.8501307,8.35573538 L70.817332,8.35573538 Z" id="Fill-24"></path>
                <polygon id="Fill-26" points="35.805864 33.5966292 33.2602898 33.5966292 33.2602898 28.1474754 28.2967122 28.1474754 28.2967122 33.5966292 25.751138 33.5966292 25.751138 20.8821985 28.2967122 20.8821985 28.2967122 26.0342446 33.2602898 26.0342446 33.2602898 20.8821985 35.805864 20.8821985"></polygon>
                <path d="M41.1598545,31.8412092 C41.5219832,31.8412092 41.8556498,31.7583015 42.1608545,31.5924862 C42.4665673,31.4264092 42.6927389,31.2035785 42.8398776,30.9242554 L42.8398776,29.3001015 L41.9235013,29.3001015 C40.6960756,29.3001015 40.0427191,29.7366092 39.963432,30.6098862 L39.9550459,30.75844 C39.9550459,31.0728092 40.0625409,31.3319938 40.2772769,31.5357323 C40.492267,31.7394708 40.7865442,31.8412092 41.1598545,31.8412092 Z M43.1875211,33.5966554 C43.0744353,33.36964 42.9926069,33.0871785 42.9417818,32.7495323 C42.3478908,33.4305785 41.5756036,33.7711015 40.6251746,33.7711015 C39.7258248,33.7711015 38.9804749,33.5035477 38.3896333,32.9679169 C37.7982835,32.4322862 37.5027356,31.7569938 37.5027356,30.94204 C37.5027356,29.9406092 37.8633396,29.1722092 38.5845475,28.6365785 C39.3060096,28.1009477 40.3481779,27.8302554 41.7113066,27.8245015 L42.8398776,27.8245015 L42.8398776,27.2828554 C42.8398776,26.8463477 42.7311119,26.4969323 42.5130723,26.2348708 C42.2952868,25.9730708 41.9517092,25.8423015 41.4823396,25.8423015 C41.0693858,25.8423015 40.7453759,25.94404 40.510564,26.1475169 C40.2757521,26.3517785 40.1586003,26.6311015 40.1586003,26.9862708 L37.7065442,26.9862708 C37.7065442,26.4391323 37.8704551,25.9325323 38.198531,25.4664708 C38.5266069,25.0009323 38.9903858,24.6355631 39.5901218,24.3708862 C40.1898578,24.1059477 40.8627818,23.9733477 41.6096564,23.9733477 C42.7407686,23.9733477 43.6388479,24.2657477 44.3033858,24.8508092 C44.9679238,25.4361323 45.3005739,26.2584092 45.3005739,27.3179015 L45.3005739,31.4133323 C45.3059106,32.3101477 45.4278908,32.9883169 45.6652439,33.4481015 L45.6652439,33.5966554 L43.1875211,33.5966554 Z" id="Fill-28"></path>
                <path d="M51.0025129,31.7364892 C51.4548561,31.7364892 51.8225756,31.6085969 52.1054172,31.3522892 C52.3882587,31.0962431 52.5351432,30.75572 52.5465789,30.3304585 L54.8461597,30.3304585 C54.840569,30.9709662 54.6708132,31.5573354 54.3368924,32.0903508 C54.0032257,32.6228431 53.5465624,33.0363354 52.9666482,33.3303046 C52.386734,33.6240123 51.746338,33.7709969 51.0446977,33.7709969 C49.7323941,33.7709969 48.6973413,33.3420738 47.9392851,32.48292 C47.181229,31.6245508 46.8023281,30.4384738 46.8023281,28.9246892 L46.8023281,28.7586123 C46.8023281,27.3034123 47.1784337,26.14192 47.930899,25.2743969 C48.6831102,24.4071354 49.7156218,23.9732431 51.0279254,23.9732431 C52.176064,23.9732431 53.0965063,24.3095815 53.7897604,24.9819969 C54.4825063,25.6544123 54.8347241,26.5493969 54.8461597,27.6669508 L52.5465789,27.6669508 C52.5351432,27.1757815 52.3882587,26.7761508 52.1054172,26.4688431 C51.8225756,26.1617969 51.4492653,26.0080123 50.9854865,26.0080123 C50.4142125,26.0080123 49.9827076,26.2224738 49.6914799,26.6508738 C49.399998,27.0792738 49.2543842,27.7749662 49.2543842,28.7366431 L49.2543842,28.9989662 C49.2543842,29.9729354 49.3987274,30.6725508 49.6871597,31.0980738 C49.9758462,31.5238585 50.4142125,31.7364892 51.0025129,31.7364892" id="Fill-30"></path>
                <polygon id="Fill-32" points="59.5807195 29.8066231 58.6981419 30.7149462 58.6981419 33.5965769 56.2460858 33.5965769 56.2460858 20.1833154 58.6981419 20.1833154 58.6981419 27.6146692 59.1733564 26.9861923 61.5237624 24.1479769 64.4678053 24.1479769 61.1504521 28.0864846 64.7564917 33.5965769 61.9395116 33.5965769"></polygon>
                <path d="M70.5009205,30.9855862 C70.5009205,30.6769708 70.3522571,30.4342631 70.0551845,30.2564169 C69.7581119,30.0788323 69.2816267,29.9200785 68.625729,29.7804169 C66.4420294,29.3088631 65.3503066,28.3539862 65.3503066,26.9160477 C65.3503066,26.0778169 65.6885475,25.3782015 66.364267,24.8158938 C67.0399865,24.2543708 67.9238347,23.9732169 69.0160657,23.9732169 C70.1809766,23.9732169 71.1128545,24.25594 71.8114452,24.82034 C72.5102901,25.3852631 72.8597125,26.1188785 72.8597125,27.0209246 L70.4076564,27.0209246 C70.4076564,26.6600015 70.2943165,26.3615862 70.0681449,26.12594 C69.841465,25.8902938 69.4882307,25.7720785 69.0076795,25.7720785 C68.5942175,25.7720785 68.2747818,25.8683246 68.0488644,26.0602938 C67.8221845,26.2525246 67.7093528,26.4970631 67.7093528,26.7939092 C67.7093528,27.0732323 67.8376861,27.29894 68.0951152,27.4707708 C68.3527983,27.6426015 68.7870987,27.7908938 69.397762,27.9161708 C70.0086795,28.0414477 70.5235376,28.1824169 70.9420822,28.3396015 C72.2373594,28.8286785 72.8851251,29.67554 72.8851251,30.8807092 C72.8851251,31.7424785 72.5257917,32.4394785 71.8076333,32.9722323 C71.0887125,33.5049862 70.1614089,33.7709708 69.0244518,33.7709708 C68.2549601,33.7709708 67.5721251,33.62974 66.9751845,33.34754 C66.3782439,33.06534 65.9106531,32.6785246 65.5711416,32.1863092 C65.23163,31.6943554 65.0621284,31.1634323 65.0621284,30.5924938 L67.3868677,30.5924938 C67.4094848,31.0410323 67.5706003,31.3841708 67.8704683,31.6232169 C68.1700822,31.8620015 68.5718545,31.9810015 69.075531,31.9810015 C69.5446465,31.9810015 69.8996597,31.8892015 70.1400624,31.7058631 C70.380465,31.5225246 70.5009205,31.2824323 70.5009205,30.9855862" id="Fill-34"></path>
            </g>
        </g>
    </g>
</svg>