<?xml version="1.0" encoding="UTF-8"?>
<svg width="19px" height="19px" viewBox="0 0 19 19" version="1.1" xmlns="http://www.w3.org/2000/svg" xmlns:xlink="http://www.w3.org/1999/xlink">
    <!-- Generator: Sketch 50.2 (55047) - http://www.bohemiancoding.com/sketch -->
    <title>Twitter</title>
    <desc>Created with Sketch.</desc>
    <defs></defs>
    <g id="Page-1" stroke="none" stroke-width="1" fill="none" fill-rule="evenodd">
        <g id="Home-Desktop-HD" transform="translate(-243.000000, -33.000000)" fill="#FFFFFF">
            <path d="M257.222368,40.0784694 C257.226246,40.1831633 257.230124,40.2878571 257.230124,40.392551 C257.230124,43.6128571 254.779262,47.3236735 250.298295,47.3236735 C248.921624,47.3236735 247.641902,46.9204082 246.563833,46.2282653 C246.753852,46.2515306 246.947749,46.2631633 247.145525,46.2631633 C248.28758,46.2631633 249.338503,45.8734694 250.172262,45.220102 C249.105826,45.2007143 248.206143,44.4969388 247.895907,43.527551 C248.045208,43.5566327 248.196448,43.5721429 248.353505,43.5721429 C248.576487,43.5721429 248.791713,43.5430612 248.995305,43.4868367 C247.880395,43.2638776 247.04082,42.2789796 247.04082,41.0982653 L247.04082,41.0672449 C247.368507,41.2494898 247.744667,41.36 248.144096,41.3716327 C247.490662,40.9354082 247.06021,40.1889796 247.06021,39.3436735 C247.06021,38.8977551 247.180426,38.4789796 247.389835,38.1183673 C248.591999,39.5918367 250.387488,40.5612245 252.411776,40.6639796 C252.371057,40.4856122 252.34779,40.2994898 252.34779,40.1094898 C252.34779,38.7639796 253.439432,37.672449 254.785079,37.672449 C255.485048,37.672449 256.119092,37.9690816 256.563117,38.4421429 C257.117664,38.3335714 257.639247,38.13 258.110418,37.8508163 C257.928154,38.4188776 257.542299,38.8977551 257.038166,39.1982653 C257.530665,39.140102 257.999896,39.0082653 258.438104,38.8143878 C258.112357,39.3068367 257.699356,39.7353061 257.222368,40.0784694 M258.835594,33 L246.166343,33 C244.425145,33 243,34.425 243,36.1679592 L243,48.8339796 C243,50.575 244.425145,52 246.166343,52 L258.833655,52 C260.574853,52 261.999998,50.575 261.999998,48.8339796 L261.999998,36.1679592 C262.001937,34.425 260.576792,33 258.835594,33" id="Twitter"></path>
        </g>
    </g>
</svg>