<?xml version="1.0" encoding="UTF-8"?>
<svg width="72px" height="74px" viewBox="0 0 72 74" version="1.1" xmlns="http://www.w3.org/2000/svg" xmlns:xlink="http://www.w3.org/1999/xlink">
    <!-- Generator: Sketch 50.2 (55047) - http://www.bohemiancoding.com/sketch -->
    <title>Sq grid pink 1</title>
    <desc>Created with Sketch.</desc>
    <defs></defs>
    <g id="Page-1" stroke="none" stroke-width="1" fill="none" fill-rule="evenodd">
        <g id="Home-Desktop-HD" transform="translate(-410.000000, -2060.000000)" fill="#DC4B6A">
            <g id="Sq-grid-pink-1" transform="translate(445.500000, 2097.000000) rotate(255.000000) translate(-445.500000, -2097.000000) translate(415.000000, 2068.000000)">
                <g id="Group-3" transform="translate(0.000000, 0.972700)">
                    <path d="M10.6546,9.602 C10.6546,10.196 10.1686,10.682 9.5746,10.682 L1.0796,10.682 C0.4856,10.682 -0.0004,10.196 -0.0004,9.602 L-0.0004,1.107 C-0.0004,0.513 0.4856,0.027 1.0796,0.027 L9.5746,0.027 C10.1686,0.027 10.6546,0.513 10.6546,1.107 L10.6546,9.602 Z" id="Fill-1"></path>
                </g>
                <g id="Group-6" transform="translate(25.000000, 0.972700)">
                    <path d="M10.7424,9.602 C10.7424,10.196 10.2564,10.682 9.6624,10.682 L1.1674,10.682 C0.5734,10.682 0.0874,10.196 0.0874,9.602 L0.0874,1.107 C0.0874,0.513 0.5734,0.027 1.1674,0.027 L9.6624,0.027 C10.2564,0.027 10.7424,0.513 10.7424,1.107 L10.7424,9.602 Z" id="Fill-4"></path>
                </g>
                <g id="Group-9" transform="translate(50.000000, 0.972700)">
                    <path d="M10.8301,9.602 C10.8301,10.196 10.3441,10.682 9.7501,10.682 L1.2551,10.682 C0.6611,10.682 0.1751,10.196 0.1751,9.602 L0.1751,1.107 C0.1751,0.513 0.6611,0.027 1.2551,0.027 L9.7501,0.027 C10.3441,0.027 10.8301,0.513 10.8301,1.107 L10.8301,9.602 Z" id="Fill-7"></path>
                </g>
                <g id="Group-12" transform="translate(0.000000, 23.972700)">
                    <path d="M10.6546,9.761 C10.6546,10.355 10.1686,10.841 9.5746,10.841 L1.0796,10.841 C0.4856,10.841 -0.0004,10.355 -0.0004,9.761 L-0.0004,1.266 C-0.0004,0.672 0.4856,0.186 1.0796,0.186 L9.5746,0.186 C10.1686,0.186 10.6546,0.672 10.6546,1.266 L10.6546,9.761 Z" id="Fill-10"></path>
                </g>
                <path d="M35.7424,33.7337 C35.7424,34.3277 35.2564,34.8137 34.6624,34.8137 L26.1674,34.8137 C25.5734,34.8137 25.0874,34.3277 25.0874,33.7337 L25.0874,25.2387 C25.0874,24.6447 25.5734,24.1587 26.1674,24.1587 L34.6624,24.1587 C35.2564,24.1587 35.7424,24.6447 35.7424,25.2387 L35.7424,33.7337 Z" id="Fill-13"></path>
                <g id="Group-17" transform="translate(50.000000, 23.972700)">
                    <path d="M10.8301,9.761 C10.8301,10.355 10.3441,10.841 9.7501,10.841 L1.2551,10.841 C0.6611,10.841 0.1751,10.355 0.1751,9.761 L0.1751,1.266 C0.1751,0.672 0.6611,0.186 1.2551,0.186 L9.7501,0.186 C10.3441,0.186 10.8301,0.672 10.8301,1.266 L10.8301,9.761 Z" id="Fill-15"></path>
                </g>
                <g id="Group-20" transform="translate(0.000000, 46.972700)">
                    <path d="M10.6546,9.92 C10.6546,10.514 10.1686,11 9.5746,11 L1.0796,11 C0.4856,11 -0.0004,10.514 -0.0004,9.92 L-0.0004,1.425 C-0.0004,0.831 0.4856,0.345 1.0796,0.345 L9.5746,0.345 C10.1686,0.345 10.6546,0.831 10.6546,1.425 L10.6546,9.92 Z" id="Fill-18"></path>
                </g>
                <path d="M35.7424,56.8927 C35.7424,57.4867 35.2564,57.9727 34.6624,57.9727 L26.1674,57.9727 C25.5734,57.9727 25.0874,57.4867 25.0874,56.8927 L25.0874,48.3977 C25.0874,47.8037 25.5734,47.3177 26.1674,47.3177 L34.6624,47.3177 C35.2564,47.3177 35.7424,47.8037 35.7424,48.3977 L35.7424,56.8927 Z" id="Fill-21"></path>
                <g id="Group-25" transform="translate(50.000000, 46.972700)">
                    <path d="M10.8301,9.92 C10.8301,10.514 10.3441,11 9.7501,11 L1.2551,11 C0.6611,11 0.1751,10.514 0.1751,9.92 L0.1751,1.425 C0.1751,0.831 0.6611,0.345 1.2551,0.345 L9.7501,0.345 C10.3441,0.345 10.8301,0.831 10.8301,1.425 L10.8301,9.92 Z" id="Fill-23"></path>
                </g>
            </g>
        </g>
    </g>
</svg>