<?xml version="1.0" encoding="UTF-8"?>
<svg width="77px" height="77px" viewBox="0 0 77 77" version="1.1" xmlns="http://www.w3.org/2000/svg" xmlns:xlink="http://www.w3.org/1999/xlink">
    <!-- Generator: Sketch 50.2 (55047) - http://www.bohemiancoding.com/sketch -->
    <title>thin circle pink 1</title>
    <desc>Created with Sketch.</desc>
    <defs></defs>
    <g id="Page-1" stroke="none" stroke-width="1" fill="none" fill-rule="evenodd">
        <g id="Home-Desktop-HD" transform="translate(-1344.000000, -151.000000)" fill="#DC4C6B">
            <path d="M1401.91253,216.391321 C1386.99665,227.177733 1366.17127,223.815402 1355.39788,208.88204 L1355.3901,208.887052 C1344.78802,193.857353 1348.34374,173.065248 1363.34583,162.426404 C1378.34068,151.792015 1399.09877,155.325303 1409.74646,170.308783 C1420.10325,185.206505 1416.66712,205.721293 1401.91253,216.391321 M1414.09697,167.310082 L1414.1003,167.307855 C1414.08251,167.282239 1414.06248,167.258294 1414.04413,167.232121 C1413.92622,167.063392 1413.81665,166.890765 1413.69651,166.723707 L1413.67538,166.738185 C1401.23343,149.810144 1377.49361,145.910998 1360.29179,158.109612 C1342.89587,170.446327 1338.78229,194.566795 1351.10411,211.98376 L1351.30878,211.838976 L1351.11467,211.979305 C1363.59611,229.281 1387.72471,233.177362 1405.00606,220.679713 C1422.09441,208.322394 1426.07839,184.568342 1414.09697,167.310082" id="thin-circle-pink-1"></path>
        </g>
    </g>
</svg>