<?xml version="1.0" encoding="UTF-8"?>
<svg width="46px" height="46px" viewBox="0 0 46 46" version="1.1" xmlns="http://www.w3.org/2000/svg" xmlns:xlink="http://www.w3.org/1999/xlink">
    <!-- Generator: Sketch 50.2 (55047) - http://www.bohemiancoding.com/sketch -->
    <title>Circle_pink1</title>
    <desc>Created with Sketch.</desc>
    <defs></defs>
    <g id="Page-1" stroke="none" stroke-width="1" fill="none" fill-rule="evenodd">
        <g id="Home-Desktop-HD" transform="translate(-979.000000, -1055.000000)" fill="#F05352">
            <path d="M1020.87622,1064.74381 L1020.87822,1064.74248 C1020.86725,1064.72684 1020.85529,1064.71254 1020.84432,1064.69724 C1020.77388,1064.59644 1020.70876,1064.49331 1020.63666,1064.39318 L1020.62436,1064.40216 C1013.19151,1054.28932 999.008948,1051.95964 988.732539,1059.24744 C978.340168,1066.61741 975.88304,1081.02701 983.244123,1091.43193 L983.366065,1091.34543 L983.250104,1091.42926 C990.70688,1101.76565 1005.12103,1104.09268 1015.44496,1096.6269 C1025.65358,1089.24462 1028.03396,1075.05392 1020.87622,1064.74381 M1013.59688,1094.06501 C1004.68609,1100.50883 992.244952,1098.50017 985.808906,1089.57862 L985.804586,1089.58195 C979.470546,1080.60319 981.59474,1068.18229 990.557027,1061.82629 C999.515326,1055.4733 1011.91626,1057.58375 1018.27722,1066.53524 C1024.46406,1075.43516 1022.41164,1087.69072 1013.59688,1094.06501" id="Circle_pink1"></path>
        </g>
    </g>
</svg>