<?xml version="1.0" encoding="UTF-8"?>
<svg width="60px" height="60px" viewBox="0 0 60 60" version="1.1" xmlns="http://www.w3.org/2000/svg" xmlns:xlink="http://www.w3.org/1999/xlink">
    <!-- Generator: Sketch 50.2 (55047) - http://www.bohemiancoding.com/sketch -->
    <title>Circle_Green2</title>
    <desc>Created with Sketch.</desc>
    <defs>
        <polygon id="path-1" points="0 0 60 0 60 60 0 60"></polygon>
    </defs>
    <g id="Page-1" stroke="none" stroke-width="1" fill="none" fill-rule="evenodd">
        <g id="Home-Desktop-HD" transform="translate(-643.000000, -4860.000000)">
            <g id="Circle_Green2" transform="translate(643.000000, 4860.000000)">
                <mask id="mask-2" fill="white">
                    <use xlink:href="#path-1"></use>
                </mask>
                <g id="Clip-2"></g>
                <path d="M30,47.2871524 C20.4522814,47.2871524 12.7134781,39.5477186 12.7134781,30 C12.7134781,20.4529119 20.4522814,12.7134781 30,12.7134781 C39.5477186,12.7134781 47.2865219,20.4529119 47.2865219,30 C47.2865219,39.5477186 39.5477186,47.2871524 30,47.2871524 M30,0 C13.4316219,0 0,13.4316219 0,30 C0,46.5683781 13.4316219,60 30,60 C46.5683781,60 60,46.5683781 60,30 C60,13.4316219 46.5683781,0 30,0" id="Fill-1" fill="#1C998B" mask="url(#mask-2)"></path>
            </g>
        </g>
    </g>
</svg>