<?xml version="1.0" encoding="UTF-8"?>
<svg width="38px" height="77px" viewBox="0 0 38 77" version="1.1" xmlns="http://www.w3.org/2000/svg" xmlns:xlink="http://www.w3.org/1999/xlink">
    <!-- Generator: Sketch 50.2 (55047) - http://www.bohemiancoding.com/sketch -->
    <title>Circle_Orng1</title>
    <desc>Created with Sketch.</desc>
    <defs></defs>
    <g id="Page-1" stroke="none" stroke-width="1" fill="none" fill-rule="evenodd">
        <g id="Home-Desktop-HD" transform="translate(0.000000, -4183.000000)" fill="#EF9B75">
            <path d="M18.9125332,4248.39132 C3.99665459,4259.17773 -16.8287329,4255.8154 -27.6021153,4240.88204 L-27.6099019,4240.88705 C-38.2119781,4225.85735 -34.6562613,4205.06525 -19.6541734,4194.4264 C-4.65931597,4183.79202 16.0987727,4187.3253 26.7464563,4202.30878 C37.1032531,4217.20651 33.667117,4237.72129 18.9125332,4248.39132 M31.0969672,4199.31008 L31.1003044,4199.30785 C31.0825063,4199.28224 31.0624835,4199.25829 31.0441293,4199.23212 C30.9262172,4199.06339 30.8166479,4198.89077 30.6965111,4198.72371 L30.6753759,4198.73818 C18.2334263,4181.81014 -5.50639193,4177.911 -22.7082076,4190.10961 C-40.1041333,4202.44633 -44.2177077,4226.56679 -31.8958949,4243.98376 L-31.6912174,4243.83898 L-31.8853273,4243.9793 C-19.4038883,4261.281 4.72470609,4265.17736 22.0060568,4252.67971 C39.0944099,4240.32239 43.0783923,4216.56834 31.0969672,4199.31008" id="Circle_Orng1"></path>
        </g>
    </g>
</svg>