<?xml version="1.0" encoding="UTF-8"?>
<svg width="92px" height="74px" viewBox="0 0 92 74" version="1.1" xmlns="http://www.w3.org/2000/svg" xmlns:xlink="http://www.w3.org/1999/xlink">
    <!-- Generator: Sketch 50.2 (55047) - http://www.bohemiancoding.com/sketch -->
    <title>Zig Zag_Green1</title>
    <desc>Created with Sketch.</desc>
    <defs></defs>
    <g id="Page-1" stroke="none" stroke-width="1" fill="none" fill-rule="evenodd">
        <g id="Home-Desktop-HD" transform="translate(-1348.000000, -1143.000000)" fill="#1C998B">
            <g id="Zig-Zag_Green1" transform="translate(1417.814671, 1165.433206) rotate(50.000000) translate(-1417.814671, -1165.433206) translate(1403.814671, 1083.433206)">
                <g id="Group-3" transform="translate(0.000000, 123.254000)">
                    <path d="M7.3302,1.49 L25.5802,16.804 C27.4612,18.382 27.7092,21.213 26.1302,23.094 C24.5522,24.976 21.7212,25.223 19.8402,23.645 L1.5902,8.331 C-0.2918,6.753 -0.5388,3.922 1.0392,2.04 C2.6182,0.159 5.4492,-0.089 7.3302,1.49" id="Fill-1"></path>
                </g>
                <g id="Group-6" transform="translate(0.000000, 138.254000)">
                    <path d="M7.3302,23.9605 L25.5802,8.6465 C27.4612,7.0685 27.7092,4.2375 26.1302,2.3565 C24.5522,0.4745 21.7212,0.2275 19.8402,1.8055 L1.5902,17.1195 C-0.2918,18.6975 -0.5388,21.5285 1.0392,23.4105 C2.6182,25.2915 5.4492,25.5395 7.3302,23.9605" id="Fill-4"></path>
                </g>
                <path d="M19.8399,109.3325 L1.5899,124.6465 C-0.2911,126.2245 -0.5391,129.0555 1.0399,130.9365 C2.6179,132.8185 5.4489,133.0655 7.3299,131.4875 L25.5799,116.1735 C27.4619,114.5955 27.7089,111.7645 26.1309,109.8825 C24.5519,108.0015 21.7209,107.7535 19.8399,109.3325" id="Fill-7"></path>
                <path d="M19.8399,78.6727 L1.5899,93.9867 C-0.2911,95.5647 -0.5391,98.3957 1.0399,100.2767 C2.6179,102.1587 5.4489,102.4057 7.3299,100.8277 L25.5799,85.5137 C27.4619,83.9357 27.7089,81.1047 26.1309,79.2227 C24.5519,77.3417 21.7209,77.0937 19.8399,78.6727" id="Fill-9"></path>
                <path d="M19.8594,48.0116 L1.6094,63.3256 C-0.2716,64.9036 -0.5196,67.7346 1.0594,69.6156 C2.6374,71.4976 5.4684,71.7446 7.3494,70.1666 L25.5994,54.8526 C27.4814,53.2746 27.7284,50.4436 26.1504,48.5616 C24.5714,46.6806 21.7404,46.4326 19.8594,48.0116" id="Fill-11"></path>
                <path d="M19.8399,116.1401 L1.5899,100.8261 C-0.2911,99.2481 -0.5391,96.4171 1.0399,94.5361 C2.6179,92.6541 5.4489,92.4071 7.3299,93.9851 L25.5799,109.2991 C27.4619,110.8781 27.7089,113.7081 26.1309,115.5901 C24.5519,117.4711 21.7209,117.7191 19.8399,116.1401" id="Fill-15"></path>
                <path d="M19.8594,85.4742 L1.6094,70.1602 C-0.2716,68.5822 -0.5196,65.7512 1.0594,63.8702 C2.6374,61.9882 5.4684,61.7412 7.3494,63.3192 L25.5994,78.6332 C27.4814,80.2122 27.7284,83.0422 26.1504,84.9242 C24.5714,86.8052 21.7404,87.0532 19.8594,85.4742" id="Fill-17"></path>
                <path d="M19.8635,54.821 L1.6135,39.507 C-0.2675,37.929 -0.5155,35.098 1.0635,33.217 C2.6415,31.335 5.4725,31.088 7.3535,32.666 L25.6035,47.98 C27.4855,49.559 27.7325,52.389 26.1545,54.271 C24.5755,56.152 21.7445,56.4 19.8635,54.821" id="Fill-19"></path>
            </g>
        </g>
    </g>
</svg>