<?xml version="1.0" encoding="utf-8"?>
<!-- Generator: Adobe Illustrator 22.1.0, SVG Export Plug-In . SVG Version: 6.00 Build 0)  -->
<svg version="1.1" id="Layer_1" xmlns="http://www.w3.org/2000/svg" xmlns:xlink="http://www.w3.org/1999/xlink" x="0px" y="0px"
	 viewBox="0 0 130 45.8" style="enable-background:new 0 0 130 45.8;" xml:space="preserve">
<style type="text/css">
	.st0{fill:#1C998B;}
</style>
<title>Jagged Line_Green2</title>
<desc>Created with Sketch.</desc>
<g id="Page-1">
	<g id="Home-Desktop-HD" transform="translate(0.000000, -3412.000000)">
		
			<g id="Jagged-Line_Green2" transform="translate(37.185310, 3429.026459) rotate(100.000000) translate(-37.185310, -3429.026459) translate(23.185310, 3347.026459)">
			<g id="Group-9" transform="translate(0.000000, 108.254000)">
				<path id="Fill-7" class="st0" d="M22.7-10.6L4.4,4.7C2.6,6.3,2.3,9.1,3.9,11c1.6,1.9,4.4,2.1,6.3,0.6L28.4-3.7
					c1.9-1.6,2.1-4.4,0.6-6.3C27.4-11.9,24.6-12.2,22.7-10.6"/>
			</g>
			<g id="Group-12" transform="translate(0.000000, 77.254000)">
				<path id="Fill-10" class="st0" d="M22.7-10.2L4.4,5.1c-1.9,1.6-2.1,4.4-0.6,6.3c1.6,1.9,4.4,2.1,6.3,0.6L28.4-3.4
					C30.3-5,30.6-7.8,29-9.7C27.4-11.6,24.6-11.8,22.7-10.2"/>
			</g>
			<path id="Fill-13" class="st0" d="M22.7,36.4L4.5,51.7c-1.9,1.6-2.1,4.4-0.6,6.3c1.6,1.9,4.4,2.1,6.3,0.6l18.2-15.3
				c1.9-1.6,2.1-4.4,0.5-6.3C27.4,35,24.6,34.8,22.7,36.4"/>
			<path id="Fill-15" class="st0" d="M22.7,5.7L4.5,21c-1.9,1.6-2.1,4.4-0.6,6.3c1.6,1.9,4.4,2.1,6.3,0.5l18.2-15.3
				c1.9-1.6,2.1-4.4,0.6-6.3C27.4,4.3,24.6,4.1,22.7,5.7"/>
			<g id="Group-19" transform="translate(0.000000, 92.254000)">
				<path id="Fill-17" class="st0" d="M22.7,12.2L4.4-3.1C2.6-4.7,2.3-7.5,3.9-9.4c1.6-1.9,4.4-2.1,6.3-0.5L28.4,5.4
					c1.9,1.6,2.1,4.4,0.5,6.3C27.4,13.6,24.6,13.8,22.7,12.2"/>
			</g>
			<path id="Fill-20" class="st0" d="M22.7,73.8L4.5,58.5c-1.9-1.6-2.1-4.4-0.5-6.3c1.6-1.9,4.4-2.1,6.3-0.6L28.4,67
				c1.9,1.6,2.1,4.4,0.5,6.3C27.4,75.1,24.6,75.4,22.7,73.8"/>
			<path id="Fill-22" class="st0" d="M22.7,43.2L4.5,27.8c-1.9-1.6-2.1-4.4-0.5-6.3c1.6-1.9,4.4-2.1,6.3-0.6l18.2,15.3
				c1.9,1.6,2.1,4.4,0.6,6.3C27.4,44.5,24.6,44.7,22.7,43.2"/>
			<g id="Group-26" transform="translate(0.000000, 0.254000)">
				<path id="Fill-24" class="st0" d="M22.7,12.3L4.5-3C2.6-4.6,2.3-7.4,3.9-9.3c1.6-1.9,4.4-2.1,6.3-0.6L28.5,5.4
					c1.9,1.6,2.1,4.4,0.6,6.3C27.4,13.6,24.6,13.9,22.7,12.3"/>
			</g>
		</g>
	</g>
</g>
</svg>
