<?xml version="1.0" encoding="UTF-8"?>
<svg width="121px" height="120px" viewBox="0 0 121 120" version="1.1" xmlns="http://www.w3.org/2000/svg" xmlns:xlink="http://www.w3.org/1999/xlink">
    <!-- Generator: Sketch 50.2 (55047) - http://www.bohemiancoding.com/sketch -->
    <title>Jagged Line_Orng_Vert</title>
    <desc>Created with Sketch.</desc>
    <defs></defs>
    <g id="Page-1" stroke="none" stroke-width="1" fill="none" fill-rule="evenodd">
        <g id="Home-Desktop-HD" transform="translate(-1219.000000, -199.000000)" fill="#EF9B75">
            <g id="Jagged-Line_Orng_Vert" transform="translate(1273.882251, 264.882251) rotate(135.000000) translate(-1273.882251, -264.882251) translate(1259.882251, 182.882251)">
                <g id="Group-3" transform="translate(0.000000, 123.254000)">
                    <path d="M7.3304,1.4902 L25.5804,16.8032 C27.4614,18.3822 27.7094,21.2132 26.1304,23.0942 C24.5524,24.9752 21.7214,25.2232 19.8394,23.6442 L1.5894,8.3312 C-0.2916,6.7532 -0.5396,3.9222 1.0394,2.0402 C2.6184,0.1592 5.4494,-0.0888 7.3304,1.4902" id="Fill-1"></path>
                </g>
                <g id="Group-6" transform="translate(0.000000, 138.254000)">
                    <path d="M7.3304,23.9609 L25.5804,8.6469 C27.4614,7.0679 27.7094,4.2369 26.1304,2.3569 C24.5524,0.4749 21.7214,0.2279 19.8394,1.8059 L1.5894,17.1189 C-0.2916,18.6979 -0.5396,21.5289 1.0394,23.4099 C2.6184,25.2919 5.4494,25.5389 7.3304,23.9609" id="Fill-4"></path>
                </g>
                <g id="Group-9" transform="translate(0.000000, 108.254000)">
                    <path d="M19.8397,1.078 L1.5897,16.392 C-0.2913,17.971 -0.5393,20.802 1.0397,22.682 C2.6177,24.564 5.4487,24.811 7.3307,23.233 L25.5807,7.92 C27.4617,6.341 27.7097,3.51 26.1307,1.629 C24.5517,-0.252 21.7207,-0.5 19.8397,1.078" id="Fill-7"></path>
                </g>
                <g id="Group-12" transform="translate(0.000000, 77.254000)">
                    <path d="M19.8397,1.4189 L1.5897,16.7319 C-0.2913,18.3109 -0.5393,21.1419 1.0397,23.0229 C2.6177,24.9039 5.4487,25.1519 7.3307,23.5729 L25.5807,8.2599 C27.4617,6.6819 27.7097,3.8509 26.1307,1.9689 C24.5517,0.0879 21.7207,-0.1601 19.8397,1.4189" id="Fill-10"></path>
                </g>
                <path d="M19.8592,48.0117 L1.6092,63.3247 C-0.2718,64.9037 -0.5198,67.7347 1.0592,69.6157 C2.6372,71.4967 5.4682,71.7447 7.3502,70.1657 L25.6002,54.8527 C27.4812,53.2747 27.7292,50.4437 26.1502,48.5617 C24.5712,46.6807 21.7402,46.4327 19.8592,48.0117" id="Fill-13"></path>
                <path d="M19.8636,17.3233 L1.6136,32.6363 C-0.2674,34.2153 -0.5154,37.0463 1.0636,38.9273 C2.6416,40.8083 5.4726,41.0563 7.3536,39.4773 L25.6036,24.1643 C27.4856,22.5853 27.7326,19.7553 26.1546,17.8733 C24.5756,15.9923 21.7446,15.7443 19.8636,17.3233" id="Fill-15"></path>
                <g id="Group-19" transform="translate(0.000000, 92.254000)">
                    <path d="M19.8397,23.8857 L1.5897,8.5727 C-0.2913,6.9937 -0.5393,4.1627 1.0397,2.2817 C2.6177,0.4007 5.4487,0.1527 7.3307,1.7317 L25.5807,17.0447 C27.4617,18.6237 27.7097,21.4537 26.1307,23.3357 C24.5517,25.2167 21.7207,25.4647 19.8397,23.8857" id="Fill-17"></path>
                </g>
                <path d="M19.8592,85.4746 L1.6092,70.1606 C-0.2718,68.5816 -0.5198,65.7506 1.0592,63.8706 C2.6372,61.9886 5.4682,61.7416 7.3502,63.3196 L25.6002,78.6326 C27.4812,80.2116 27.7292,83.0416 26.1502,84.9236 C24.5712,86.8046 21.7402,87.0526 19.8592,85.4746" id="Fill-20"></path>
                <path d="M19.8636,54.8213 L1.6136,39.5073 C-0.2674,37.9283 -0.5154,35.0983 1.0636,33.2173 C2.6416,31.3353 5.4726,31.0873 7.3536,32.6663 L25.6036,47.9803 C27.4856,49.5583 27.7326,52.3893 26.1546,54.2703 C24.5756,56.1523 21.7446,56.3993 19.8636,54.8213" id="Fill-22"></path>
                <g id="Group-26" transform="translate(0.000000, 0.254000)">
                    <path d="M19.8636,23.9399 L1.6136,8.6269 C-0.2674,7.0479 -0.5154,4.2169 1.0636,2.3359 C2.6416,0.4539 5.4726,0.2069 7.3536,1.7849 L25.6036,17.0989 C27.4856,18.6769 27.7326,21.5079 26.1546,23.3899 C24.5756,25.2709 21.7446,25.5189 19.8636,23.9399" id="Fill-24"></path>
                </g>
            </g>
        </g>
    </g>
</svg>