<?xml version="1.0" encoding="UTF-8"?>
<svg width="145px" height="90px" viewBox="0 0 145 90" version="1.1" xmlns="http://www.w3.org/2000/svg" xmlns:xlink="http://www.w3.org/1999/xlink">
    <!-- Generator: Sketch 50.2 (55047) - http://www.bohemiancoding.com/sketch -->
    <title>Jagged Line_Orng2</title>
    <desc>Created with Sketch.</desc>
    <defs></defs>
    <g id="Page-1" stroke="none" stroke-width="1" fill="none" fill-rule="evenodd">
        <g id="Home-Desktop-HD" transform="translate(-1159.000000, -4761.000000)" fill="#EF9B75">
            <g id="Jagged-Line_Orng2" transform="translate(1235.532831, 4810.092670) rotate(62.000000) translate(-1235.532831, -4810.092670) translate(1221.532831, 4728.592670)">
                <g id="Group-3" transform="translate(0.000000, 122.254000)">
                    <path d="M7.3304,1.4902 L25.5804,16.8032 C27.4614,18.3822 27.7094,21.2132 26.1304,23.0942 C24.5524,24.9752 21.7214,25.2232 19.8394,23.6442 L1.5894,8.3312 C-0.2916,6.7532 -0.5396,3.9222 1.0394,2.0402 C2.6184,0.1592 5.4494,-0.0888 7.3304,1.4902" id="Fill-1"></path>
                </g>
                <g id="Group-6" transform="translate(0.000000, 137.254000)">
                    <path d="M7.3304,23.9609 L25.5804,8.6469 C27.4614,7.0679 27.7094,4.2369 26.1304,2.3569 C24.5524,0.4749 21.7214,0.2279 19.8394,1.8059 L1.5894,17.1189 C-0.2916,18.6979 -0.5396,21.5289 1.0394,23.4099 C2.6184,25.2919 5.4494,25.5389 7.3304,23.9609" id="Fill-4"></path>
                </g>
                <g id="Group-9" transform="translate(0.000000, 107.254000)">
                    <path d="M19.8397,1.078 L1.5897,16.392 C-0.2913,17.971 -0.5393,20.802 1.0397,22.682 C2.6177,24.564 5.4487,24.811 7.3307,23.233 L25.5807,7.92 C27.4617,6.341 27.7097,3.51 26.1307,1.629 C24.5517,-0.252 21.7207,-0.5 19.8397,1.078" id="Fill-7"></path>
                </g>
                <g id="Group-12" transform="translate(0.000000, 76.254000)">
                    <path d="M19.8397,1.4189 L1.5897,16.7319 C-0.2913,18.3109 -0.5393,21.1419 1.0397,23.0229 C2.6177,24.9039 5.4487,25.1519 7.3307,23.5729 L25.5807,8.2599 C27.4617,6.6819 27.7097,3.8509 26.1307,1.9689 C24.5517,0.0879 21.7207,-0.1601 19.8397,1.4189" id="Fill-10"></path>
                </g>
                <path d="M19.8592,47.0117 L1.6092,62.3247 C-0.2718,63.9037 -0.5198,66.7347 1.0592,68.6157 C2.6372,70.4967 5.4682,70.7447 7.3502,69.1657 L25.6002,53.8527 C27.4812,52.2747 27.7292,49.4437 26.1502,47.5617 C24.5712,45.6807 21.7402,45.4327 19.8592,47.0117" id="Fill-13"></path>
                <path d="M19.8636,16.3233 L1.6136,31.6363 C-0.2674,33.2153 -0.5154,36.0463 1.0636,37.9273 C2.6416,39.8083 5.4726,40.0563 7.3536,38.4773 L25.6036,23.1643 C27.4856,21.5853 27.7326,18.7553 26.1546,16.8733 C24.5756,14.9923 21.7446,14.7443 19.8636,16.3233" id="Fill-15"></path>
                <g id="Group-19" transform="translate(0.000000, 91.254000)">
                    <path d="M19.8397,23.8857 L1.5897,8.5727 C-0.2913,6.9937 -0.5393,4.1627 1.0397,2.2817 C2.6177,0.4007 5.4487,0.1527 7.3307,1.7317 L25.5807,17.0447 C27.4617,18.6237 27.7097,21.4537 26.1307,23.3357 C24.5517,25.2167 21.7207,25.4647 19.8397,23.8857" id="Fill-17"></path>
                </g>
                <path d="M19.8592,84.4746 L1.6092,69.1606 C-0.2718,67.5816 -0.5198,64.7506 1.0592,62.8706 C2.6372,60.9886 5.4682,60.7416 7.3502,62.3196 L25.6002,77.6326 C27.4812,79.2116 27.7292,82.0416 26.1502,83.9236 C24.5712,85.8046 21.7402,86.0526 19.8592,84.4746" id="Fill-20"></path>
                <path d="M19.8636,53.8213 L1.6136,38.5073 C-0.2674,36.9283 -0.5154,34.0983 1.0636,32.2173 C2.6416,30.3353 5.4726,30.0873 7.3536,31.6663 L25.6036,46.9803 C27.4856,48.5583 27.7326,51.3893 26.1546,53.2703 C24.5756,55.1523 21.7446,55.3993 19.8636,53.8213" id="Fill-22"></path>
                <path d="M19.8636,23.1939 L1.6136,7.8809 C-0.2674,6.3019 -0.5154,3.4709 1.0636,1.5899 C2.6416,-0.2921 5.4726,-0.5391 7.3536,1.0389 L25.6036,16.3529 C27.4856,17.9309 27.7326,20.7619 26.1546,22.6439 C24.5756,24.5249 21.7446,24.7729 19.8636,23.1939" id="Fill-24"></path>
            </g>
        </g>
    </g>
</svg>