<?xml version="1.0" encoding="UTF-8"?>
<svg width="131px" height="138px" viewBox="0 0 131 138" version="1.1" xmlns="http://www.w3.org/2000/svg" xmlns:xlink="http://www.w3.org/1999/xlink">
    <!-- Generator: Sketch 50.2 (55047) - http://www.bohemiancoding.com/sketch -->
    <title> dot grid green 1</title>
    <desc>Created with Sketch.</desc>
    <defs></defs>
    <g id="Page-1" stroke="none" stroke-width="1" fill="none" fill-rule="evenodd">
        <g id="Home-Desktop-HD" transform="translate(-1190.000000, -1528.000000)" fill="#A0CE66">
            <g id="-dot-grid-green-1" transform="translate(1255.000000, 1596.500000) rotate(190.000000) translate(-1255.000000, -1596.500000) translate(1198.000000, 1536.000000)">
                <g id="Dot-Grid" transform="translate(25.500000, 60.500000) rotate(90.000000) translate(-25.500000, -60.500000) translate(-35.000000, 35.000000)">
                    <g id="Dot-grid" transform="translate(0.000000, 0.000000)">
                        <g id="Group-3" transform="translate(0.000000, 21.772400)">
                            <path d="M8.0628,4.1137 C8.0628,6.3407 6.2578,8.1457 4.0318,8.1457 C1.8048,8.1457 -0.0002,6.3407 -0.0002,4.1137 C-0.0002,1.8867 1.8048,0.0827 4.0318,0.0827 C6.2578,0.0827 8.0628,1.8867 8.0628,4.1137" id="Fill-1"></path>
                        </g>
                        <g id="Group-6" transform="translate(0.000000, 41.772400)">
                            <path d="M8.0628,4.9687 C8.0628,7.1957 6.2578,8.9997 4.0318,8.9997 C1.8048,8.9997 -0.0002,7.1957 -0.0002,4.9687 C-0.0002,2.7417 1.8048,0.9367 4.0318,0.9367 C6.2578,0.9367 8.0628,2.7417 8.0628,4.9687" id="Fill-4"></path>
                        </g>
                        <g id="Group-9" transform="translate(0.000000, 0.772400)">
                            <path d="M8.0628,4.2592 C8.0628,6.4862 6.2578,8.2902 4.0318,8.2902 C1.8048,8.2902 -0.0002,6.4862 -0.0002,4.2592 C-0.0002,2.0322 1.8048,0.2272 4.0318,0.2272 C6.2578,0.2272 8.0628,2.0322 8.0628,4.2592" id="Fill-7"></path>
                        </g>
                        <path d="M53.7196,25.8861 C53.7196,28.1131 51.9146,29.9181 49.6876,29.9181 C47.4616,29.9181 45.6566,28.1131 45.6566,25.8861 C45.6566,23.6591 47.4616,21.8551 49.6876,21.8551 C51.9146,21.8551 53.7196,23.6591 53.7196,25.8861" id="Fill-10"></path>
                        <path d="M53.7196,46.7411 C53.7196,48.9681 51.9146,50.7721 49.6876,50.7721 C47.4616,50.7721 45.6566,48.9681 45.6566,46.7411 C45.6566,44.5141 47.4616,42.7091 49.6876,42.7091 C51.9146,42.7091 53.7196,44.5141 53.7196,46.7411" id="Fill-12"></path>
                        <g id="Group-16" transform="translate(45.000000, 0.772400)">
                            <path d="M8.7196,4.2592 C8.7196,6.4862 6.9146,8.2902 4.6876,8.2902 C2.4616,8.2902 0.6566,6.4862 0.6566,4.2592 C0.6566,2.0322 2.4616,0.2272 4.6876,0.2272 C6.9146,0.2272 8.7196,2.0322 8.7196,4.2592" id="Fill-14"></path>
                        </g>
                        <path d="M30.8914,25.8861 C30.8914,28.1131 29.0864,29.9181 26.8594,29.9181 C24.6334,29.9181 22.8284,28.1131 22.8284,25.8861 C22.8284,23.6591 24.6334,21.8551 26.8594,21.8551 C29.0864,21.8551 30.8914,23.6591 30.8914,25.8861" id="Fill-17"></path>
                        <path d="M30.8914,46.7411 C30.8914,48.9681 29.0864,50.7721 26.8594,50.7721 C24.6334,50.7721 22.8284,48.9681 22.8284,46.7411 C22.8284,44.5141 24.6334,42.7091 26.8594,42.7091 C29.0864,42.7091 30.8914,44.5141 30.8914,46.7411" id="Fill-19"></path>
                        <g id="Group-23" transform="translate(22.000000, 0.772400)">
                            <path d="M8.8914,4.2592 C8.8914,6.4862 7.0864,8.2902 4.8594,8.2902 C2.6334,8.2902 0.8284,6.4862 0.8284,4.2592 C0.8284,2.0322 2.6334,0.2272 4.8594,0.2272 C7.0864,0.2272 8.8914,2.0322 8.8914,4.2592" id="Fill-21"></path>
                        </g>
                    </g>
                    <g id="Dot-grid-Copy" transform="translate(67.000000, 0.000000)">
                        <g id="Group-3" transform="translate(-0.000000, 21.772400)">
                            <path d="M8.0628,4.1137 C8.0628,6.3407 6.2578,8.1457 4.0318,8.1457 C1.8048,8.1457 -0.0002,6.3407 -0.0002,4.1137 C-0.0002,1.8867 1.8048,0.0827 4.0318,0.0827 C6.2578,0.0827 8.0628,1.8867 8.0628,4.1137" id="Fill-1"></path>
                        </g>
                        <g id="Group-6" transform="translate(-0.000000, 41.772400)">
                            <path d="M8.0628,4.9687 C8.0628,7.1957 6.2578,8.9997 4.0318,8.9997 C1.8048,8.9997 -0.0002,7.1957 -0.0002,4.9687 C-0.0002,2.7417 1.8048,0.9367 4.0318,0.9367 C6.2578,0.9367 8.0628,2.7417 8.0628,4.9687" id="Fill-4"></path>
                        </g>
                        <g id="Group-9" transform="translate(-0.000000, 0.772400)">
                            <path d="M8.0628,4.2592 C8.0628,6.4862 6.2578,8.2902 4.0318,8.2902 C1.8048,8.2902 -0.0002,6.4862 -0.0002,4.2592 C-0.0002,2.0322 1.8048,0.2272 4.0318,0.2272 C6.2578,0.2272 8.0628,2.0322 8.0628,4.2592" id="Fill-7"></path>
                        </g>
                        <path d="M53.7196,25.8861 C53.7196,28.1131 51.9146,29.9181 49.6876,29.9181 C47.4616,29.9181 45.6566,28.1131 45.6566,25.8861 C45.6566,23.6591 47.4616,21.8551 49.6876,21.8551 C51.9146,21.8551 53.7196,23.6591 53.7196,25.8861" id="Fill-10"></path>
                        <path d="M53.7196,46.7411 C53.7196,48.9681 51.9146,50.7721 49.6876,50.7721 C47.4616,50.7721 45.6566,48.9681 45.6566,46.7411 C45.6566,44.5141 47.4616,42.7091 49.6876,42.7091 C51.9146,42.7091 53.7196,44.5141 53.7196,46.7411" id="Fill-12"></path>
                        <g id="Group-16" transform="translate(45.000000, 0.772400)">
                            <path d="M8.7196,4.2592 C8.7196,6.4862 6.9146,8.2902 4.6876,8.2902 C2.4616,8.2902 0.6566,6.4862 0.6566,4.2592 C0.6566,2.0322 2.4616,0.2272 4.6876,0.2272 C6.9146,0.2272 8.7196,2.0322 8.7196,4.2592" id="Fill-14"></path>
                        </g>
                        <path d="M30.8914,25.8861 C30.8914,28.1131 29.0864,29.9181 26.8594,29.9181 C24.6334,29.9181 22.8284,28.1131 22.8284,25.8861 C22.8284,23.6591 24.6334,21.8551 26.8594,21.8551 C29.0864,21.8551 30.8914,23.6591 30.8914,25.8861" id="Fill-17"></path>
                        <path d="M30.8914,46.7411 C30.8914,48.9681 29.0864,50.7721 26.8594,50.7721 C24.6334,50.7721 22.8284,48.9681 22.8284,46.7411 C22.8284,44.5141 24.6334,42.7091 26.8594,42.7091 C29.0864,42.7091 30.8914,44.5141 30.8914,46.7411" id="Fill-19"></path>
                        <g id="Group-23" transform="translate(22.000000, 0.772400)">
                            <path d="M8.8914,4.2592 C8.8914,6.4862 7.0864,8.2902 4.8594,8.2902 C2.6334,8.2902 0.8284,6.4862 0.8284,4.2592 C0.8284,2.0322 2.6334,0.2272 4.8594,0.2272 C7.0864,0.2272 8.8914,2.0322 8.8914,4.2592" id="Fill-21"></path>
                        </g>
                    </g>
                </g>
                <g id="Dot-Grid-Copy" transform="translate(88.500000, 60.500000) rotate(90.000000) translate(-88.500000, -60.500000) translate(28.000000, 35.000000)">
                    <g id="Dot-grid">
                        <g id="Group-3" transform="translate(0.000000, 21.772400)">
                            <path d="M8.0628,4.1137 C8.0628,6.3407 6.2578,8.1457 4.0318,8.1457 C1.8048,8.1457 -0.0002,6.3407 -0.0002,4.1137 C-0.0002,1.8867 1.8048,0.0827 4.0318,0.0827 C6.2578,0.0827 8.0628,1.8867 8.0628,4.1137" id="Fill-1"></path>
                        </g>
                        <g id="Group-6" transform="translate(0.000000, 41.772400)">
                            <path d="M8.0628,4.9687 C8.0628,7.1957 6.2578,8.9997 4.0318,8.9997 C1.8048,8.9997 -0.0002,7.1957 -0.0002,4.9687 C-0.0002,2.7417 1.8048,0.9367 4.0318,0.9367 C6.2578,0.9367 8.0628,2.7417 8.0628,4.9687" id="Fill-4"></path>
                        </g>
                        <g id="Group-9" transform="translate(0.000000, 0.772400)">
                            <path d="M8.0628,4.2592 C8.0628,6.4862 6.2578,8.2902 4.0318,8.2902 C1.8048,8.2902 -0.0002,6.4862 -0.0002,4.2592 C-0.0002,2.0322 1.8048,0.2272 4.0318,0.2272 C6.2578,0.2272 8.0628,2.0322 8.0628,4.2592" id="Fill-7"></path>
                        </g>
                        <path d="M49.6876,29.9181 C47.4616,29.9181 45.6566,28.1131 45.6566,25.8861 C45.6566,23.6591 47.4616,21.8551 49.6876,21.8551 C51.9146,21.8551 53.7196,23.6591 53.7196,25.8861 C53.7196,28.1131 51.9146,29.9181 49.6876,29.9181 Z" id="Fill-10"></path>
                        <path d="M53.7196,46.7411 C53.7196,48.9681 51.9146,50.7721 49.6876,50.7721 C47.4616,50.7721 45.6566,48.9681 45.6566,46.7411 C45.6566,44.5141 47.4616,42.7091 49.6876,42.7091 C51.9146,42.7091 53.7196,44.5141 53.7196,46.7411" id="Fill-12"></path>
                        <g id="Group-16" transform="translate(45.000000, 0.772400)">
                            <path d="M8.7196,4.2592 C8.7196,6.4862 6.9146,8.2902 4.6876,8.2902 C2.4616,8.2902 0.6566,6.4862 0.6566,4.2592 C0.6566,2.0322 2.4616,0.2272 4.6876,0.2272 C6.9146,0.2272 8.7196,2.0322 8.7196,4.2592" id="Fill-14"></path>
                        </g>
                        <path d="M30.8914,25.8861 C30.8914,28.1131 29.0864,29.9181 26.8594,29.9181 C24.6334,29.9181 22.8284,28.1131 22.8284,25.8861 C22.8284,23.6591 24.6334,21.8551 26.8594,21.8551 C29.0864,21.8551 30.8914,23.6591 30.8914,25.8861" id="Fill-17"></path>
                        <path d="M30.8914,46.7411 C30.8914,48.9681 29.0864,50.7721 26.8594,50.7721 C24.6334,50.7721 22.8284,48.9681 22.8284,46.7411 C22.8284,44.5141 24.6334,42.7091 26.8594,42.7091 C29.0864,42.7091 30.8914,44.5141 30.8914,46.7411" id="Fill-19"></path>
                        <g id="Group-23" transform="translate(22.000000, 0.772400)">
                            <path d="M8.8914,4.2592 C8.8914,6.4862 7.0864,8.2902 4.8594,8.2902 C2.6334,8.2902 0.8284,6.4862 0.8284,4.2592 C0.8284,2.0322 2.6334,0.2272 4.8594,0.2272 C7.0864,0.2272 8.8914,2.0322 8.8914,4.2592" id="Fill-21"></path>
                        </g>
                    </g>
                    <g id="Dot-grid-Copy" transform="translate(67.000000, 0.000000)">
                        <g id="Group-3" transform="translate(-0.000000, 21.772400)">
                            <path d="M8.0628,4.1137 C8.0628,6.3407 6.2578,8.1457 4.0318,8.1457 C1.8048,8.1457 -0.0002,6.3407 -0.0002,4.1137 C-0.0002,1.8867 1.8048,0.0827 4.0318,0.0827 C6.2578,0.0827 8.0628,1.8867 8.0628,4.1137" id="Fill-1"></path>
                        </g>
                        <g id="Group-6" transform="translate(-0.000000, 41.772400)">
                            <path d="M8.0628,4.9687 C8.0628,7.1957 6.2578,8.9997 4.0318,8.9997 C1.8048,8.9997 -0.0002,7.1957 -0.0002,4.9687 C-0.0002,2.7417 1.8048,0.9367 4.0318,0.9367 C6.2578,0.9367 8.0628,2.7417 8.0628,4.9687" id="Fill-4"></path>
                        </g>
                        <g id="Group-9" transform="translate(-0.000000, 0.772400)">
                            <path d="M8.0628,4.2592 C8.0628,6.4862 6.2578,8.2902 4.0318,8.2902 C1.8048,8.2902 -0.0002,6.4862 -0.0002,4.2592 C-0.0002,2.0322 1.8048,0.2272 4.0318,0.2272 C6.2578,0.2272 8.0628,2.0322 8.0628,4.2592" id="Fill-7"></path>
                        </g>
                        <path d="M53.7196,25.8861 C53.7196,28.1131 51.9146,29.9181 49.6876,29.9181 C47.4616,29.9181 45.6566,28.1131 45.6566,25.8861 C45.6566,23.6591 47.4616,21.8551 49.6876,21.8551 C51.9146,21.8551 53.7196,23.6591 53.7196,25.8861" id="Fill-10"></path>
                        <path d="M53.7196,46.7411 C53.7196,48.9681 51.9146,50.7721 49.6876,50.7721 C47.4616,50.7721 45.6566,48.9681 45.6566,46.7411 C45.6566,44.5141 47.4616,42.7091 49.6876,42.7091 C51.9146,42.7091 53.7196,44.5141 53.7196,46.7411" id="Fill-12"></path>
                        <g id="Group-16" transform="translate(45.000000, 0.772400)">
                            <path d="M8.7196,4.2592 C8.7196,6.4862 6.9146,8.2902 4.6876,8.2902 C2.4616,8.2902 0.6566,6.4862 0.6566,4.2592 C0.6566,2.0322 2.4616,0.2272 4.6876,0.2272 C6.9146,0.2272 8.7196,2.0322 8.7196,4.2592" id="Fill-14"></path>
                        </g>
                        <path d="M26.8594,29.9181 C24.6334,29.9181 22.8284,28.1131 22.8284,25.8861 C22.8284,23.6591 24.6334,21.8551 26.8594,21.8551 C29.0864,21.8551 30.8914,23.6591 30.8914,25.8861 C30.8914,28.1131 29.0864,29.9181 26.8594,29.9181 Z" id="Fill-17"></path>
                        <path d="M30.8914,46.7411 C30.8914,48.9681 29.0864,50.7721 26.8594,50.7721 C24.6334,50.7721 22.8284,48.9681 22.8284,46.7411 C22.8284,44.5141 24.6334,42.7091 26.8594,42.7091 C29.0864,42.7091 30.8914,44.5141 30.8914,46.7411" id="Fill-19"></path>
                        <g id="Group-23" transform="translate(22.000000, 0.772400)">
                            <path d="M8.8914,4.2592 C8.8914,6.4862 7.0864,8.2902 4.8594,8.2902 C2.6334,8.2902 0.8284,6.4862 0.8284,4.2592 C0.8284,2.0322 2.6334,0.2272 4.8594,0.2272 C7.0864,0.2272 8.8914,2.0322 8.8914,4.2592" id="Fill-21"></path>
                        </g>
                    </g>
                </g>
            </g>
        </g>
    </g>
</svg>