<?xml version="1.0" encoding="UTF-8"?>
<svg width="39px" height="66px" viewBox="0 0 39 66" version="1.1" xmlns="http://www.w3.org/2000/svg" xmlns:xlink="http://www.w3.org/1999/xlink">
    <!-- Generator: Sketch 50.2 (55047) - http://www.bohemiancoding.com/sketch -->
    <title>Thin circle blue 1</title>
    <desc>Created with Sketch.</desc>
    <defs></defs>
    <g id="Page-1" stroke="none" stroke-width="1" fill="none" fill-rule="evenodd">
        <g id="Home-Desktop-HD" transform="translate(0.000000, -1422.000000)" fill="#41BECD">
            <path d="M33.083275,1435.98025 L33.0861354,1435.97834 C33.0704031,1435.95591 33.0532407,1435.93538 33.0375085,1435.91343 C32.936441,1435.7688 32.8430013,1435.62084 32.7395501,1435.47716 L32.721911,1435.49005 C22.0573828,1420.98033 1.70849057,1417.63774 -13.0359228,1428.09415 C-27.9467161,1438.66845 -31.4721603,1459.3431 -20.9106066,1474.27189 L-20.7356454,1474.14779 L-20.9020254,1474.26808 C-10.2031724,1489.09855 10.4780031,1492.43732 25.2905893,1481.72555 C39.9377491,1471.13359 43.3530678,1450.77301 33.083275,1435.98025 M22.6389977,1478.0498 C9.85395896,1487.29527 -7.99637307,1484.41328 -17.2307008,1471.6128 L-17.2368983,1471.61758 C-26.3248688,1458.73501 -23.2771116,1440.91372 -10.4181792,1431.79425 C2.4350324,1422.67908 20.2276797,1425.70712 29.3542656,1438.55056 C38.2310432,1451.32001 35.2862604,1468.90408 22.6389977,1478.0498" id="Thin-circle-blue-1"></path>
        </g>
    </g>
</svg>